<?xml version="1.0" encoding="utf-8" standalone="no"?>
<!DOCTYPE svg PUBLIC "-//W3C//DTD SVG 1.1//EN"
  "http://www.w3.org/Graphics/SVG/1.1/DTD/svg11.dtd">
<!-- Created with matplotlib (http://matplotlib.org/) -->
<svg height="432pt" version="1.1" viewBox="0 0 576 432" width="576pt" xmlns="http://www.w3.org/2000/svg" xmlns:xlink="http://www.w3.org/1999/xlink">
 <defs>
  <style type="text/css">
*{stroke-linecap:butt;stroke-linejoin:round;stroke-miterlimit:100000;}
  </style>
 </defs>
 <g id="figure_1">
  <g id="patch_1">
   <path d="M 0 432 
L 576 432 
L 576 0 
L 0 0 
z
" style="fill:#ffffff;"/>
  </g>
  <g id="axes_1">
   <g id="patch_2">
    <path d="M 72 200.290909 
L 274.909091 200.290909 
L 274.909091 43.2 
L 72 43.2 
z
" style="fill:#ffffff;"/>
   </g>
   <g id="PolyCollection_1">
    <defs>
     <path d="M 96.043682 -243.616558 
L 96.043682 -231.709091 
L 99.111668 -231.709091 
L 102.179653 -231.709091 
L 105.247639 -231.709091 
L 108.315624 -231.709091 
L 111.38361 -231.709091 
L 114.451595 -231.709091 
L 117.51958 -231.709091 
L 120.587566 -231.709091 
L 123.655551 -231.709091 
L 126.723537 -231.709091 
L 129.791522 -231.709091 
L 132.859508 -231.709091 
L 135.927493 -231.709091 
L 138.995479 -231.709091 
L 142.063464 -231.709091 
L 145.13145 -231.709091 
L 148.199435 -231.709091 
L 151.26742 -231.709091 
L 154.335406 -231.709091 
L 157.403391 -231.709091 
L 160.471377 -231.709091 
L 163.539362 -231.709091 
L 166.607348 -231.709091 
L 169.675333 -231.709091 
L 172.743319 -231.709091 
L 175.811304 -231.709091 
L 178.87929 -231.709091 
L 181.947275 -231.709091 
L 185.01526 -231.709091 
L 188.083246 -231.709091 
L 191.151231 -231.709091 
L 194.219217 -231.709091 
L 197.287202 -231.709091 
L 200.355188 -231.709091 
L 203.423173 -231.709091 
L 206.491159 -231.709091 
L 209.559144 -231.709091 
L 212.62713 -231.709091 
L 215.695115 -231.709091 
L 218.7631 -231.709091 
L 221.831086 -231.709091 
L 224.899071 -231.709091 
L 227.967057 -231.709091 
L 231.035042 -231.709091 
L 234.103028 -231.709091 
L 237.171013 -231.709091 
L 240.238999 -231.709091 
L 243.306984 -231.709091 
L 246.37497 -231.709091 
L 249.442955 -231.709091 
L 252.51094 -231.709091 
L 255.578926 -231.709091 
L 258.646911 -231.709091 
L 261.714897 -231.709091 
L 264.782882 -231.709091 
L 267.850868 -231.709091 
L 270.918853 -231.709091 
L 270.918853 -241.251274 
L 270.918853 -241.251274 
L 267.850868 -242.265437 
L 264.782882 -246.753601 
L 261.714897 -246.858816 
L 258.646911 -246.420119 
L 255.578926 -242.950985 
L 252.51094 -242.263052 
L 249.442955 -242.642892 
L 246.37497 -242.81435 
L 243.306984 -243.469066 
L 240.238999 -243.305959 
L 237.171013 -242.272324 
L 234.103028 -240.839449 
L 231.035042 -237.802533 
L 227.967057 -238.147984 
L 224.899071 -238.169843 
L 221.831086 -236.247837 
L 218.7631 -234.522814 
L 215.695115 -233.827097 
L 212.62713 -233.708382 
L 209.559144 -234.538362 
L 206.491159 -233.973756 
L 203.423173 -233.895365 
L 200.355188 -233.435359 
L 197.287202 -234.316681 
L 194.219217 -233.964193 
L 191.151231 -234.050345 
L 188.083246 -234.378196 
L 185.01526 -234.447899 
L 181.947275 -234.002385 
L 178.87929 -233.98863 
L 175.811304 -236.469636 
L 172.743319 -238.259863 
L 169.675333 -235.204396 
L 166.607348 -237.45773 
L 163.539362 -236.175182 
L 160.471377 -239.226039 
L 157.403391 -240.288523 
L 154.335406 -236.32126 
L 151.26742 -234.51305 
L 148.199435 -236.729982 
L 145.13145 -240.885748 
L 142.063464 -243.114263 
L 138.995479 -241.053218 
L 135.927493 -238.438892 
L 132.859508 -238.130057 
L 129.791522 -234.158919 
L 126.723537 -233.046589 
L 123.655551 -233.763054 
L 120.587566 -234.472319 
L 117.51958 -234.045744 
L 114.451595 -234.757174 
L 111.38361 -233.733811 
L 108.315624 -234.633071 
L 105.247639 -234.853065 
L 102.179653 -235.278795 
L 99.111668 -244.667939 
L 96.043682 -243.616558 
z
" id="m6a160cff36" style="stroke:#000000;stroke-opacity:0.4;"/>
    </defs>
    <g clip-path="url(#pcaf7f2ef09)">
     <use style="fill:#e41a1c;fill-opacity:0.4;stroke:#000000;stroke-opacity:0.4;" x="0.0" xlink:href="#m6a160cff36" y="432.0"/>
    </g>
   </g>
   <g id="PolyCollection_2">
    <defs>
     <path d="M 96.043682 -243.616558 
L 96.043682 -243.616558 
L 99.111668 -244.667939 
L 102.179653 -235.278795 
L 105.247639 -234.853065 
L 108.315624 -234.633071 
L 111.38361 -233.733811 
L 114.451595 -234.757174 
L 117.51958 -234.045744 
L 120.587566 -234.472319 
L 123.655551 -233.763054 
L 126.723537 -233.046589 
L 129.791522 -234.158919 
L 132.859508 -238.130057 
L 135.927493 -238.438892 
L 138.995479 -241.053218 
L 142.063464 -243.114263 
L 145.13145 -240.885748 
L 148.199435 -236.729982 
L 151.26742 -234.51305 
L 154.335406 -236.32126 
L 157.403391 -240.288523 
L 160.471377 -239.226039 
L 163.539362 -236.175182 
L 166.607348 -237.45773 
L 169.675333 -235.204396 
L 172.743319 -238.259863 
L 175.811304 -236.469636 
L 178.87929 -233.98863 
L 181.947275 -234.002385 
L 185.01526 -234.447899 
L 188.083246 -234.378196 
L 191.151231 -234.050345 
L 194.219217 -233.964193 
L 197.287202 -234.316681 
L 200.355188 -233.435359 
L 203.423173 -233.895365 
L 206.491159 -233.973756 
L 209.559144 -234.538362 
L 212.62713 -233.708382 
L 215.695115 -233.827097 
L 218.7631 -234.522814 
L 221.831086 -236.247837 
L 224.899071 -238.169843 
L 227.967057 -238.147984 
L 231.035042 -237.802533 
L 234.103028 -240.839449 
L 237.171013 -242.272324 
L 240.238999 -243.305959 
L 243.306984 -243.469066 
L 246.37497 -242.81435 
L 249.442955 -242.642892 
L 252.51094 -242.263052 
L 255.578926 -242.950985 
L 258.646911 -246.420119 
L 261.714897 -246.858816 
L 264.782882 -246.753601 
L 267.850868 -242.265437 
L 270.918853 -241.251274 
L 270.918853 -241.251274 
L 270.918853 -241.251274 
L 267.850868 -242.265437 
L 264.782882 -246.753601 
L 261.714897 -246.858816 
L 258.646911 -246.420119 
L 255.578926 -242.950985 
L 252.51094 -242.263052 
L 249.442955 -242.642892 
L 246.37497 -242.81435 
L 243.306984 -243.469066 
L 240.238999 -243.305959 
L 237.171013 -242.272324 
L 234.103028 -240.839449 
L 231.035042 -237.802533 
L 227.967057 -238.147984 
L 224.899071 -238.169843 
L 221.831086 -236.247837 
L 218.7631 -234.522814 
L 215.695115 -233.827097 
L 212.62713 -233.708382 
L 209.559144 -234.538362 
L 206.491159 -233.973756 
L 203.423173 -233.895365 
L 200.355188 -233.435359 
L 197.287202 -234.316681 
L 194.219217 -233.964193 
L 191.151231 -234.050345 
L 188.083246 -234.378196 
L 185.01526 -234.447899 
L 181.947275 -234.002385 
L 178.87929 -233.98863 
L 175.811304 -236.469636 
L 172.743319 -238.259863 
L 169.675333 -235.204396 
L 166.607348 -237.45773 
L 163.539362 -236.175182 
L 160.471377 -239.226039 
L 157.403391 -240.288523 
L 154.335406 -236.32126 
L 151.26742 -234.51305 
L 148.199435 -236.729982 
L 145.13145 -240.885748 
L 142.063464 -243.114263 
L 138.995479 -241.053218 
L 135.927493 -238.438892 
L 132.859508 -238.130057 
L 129.791522 -234.158919 
L 126.723537 -233.046589 
L 123.655551 -233.763054 
L 120.587566 -234.472319 
L 117.51958 -234.045744 
L 114.451595 -234.757174 
L 111.38361 -233.733811 
L 108.315624 -234.633071 
L 105.247639 -234.853065 
L 102.179653 -235.278795 
L 99.111668 -244.667939 
L 96.043682 -243.616558 
z
" id="m30b67d2c0b" style="stroke:#000000;stroke-opacity:0.4;"/>
    </defs>
    <g clip-path="url(#pcaf7f2ef09)">
     <use style="fill:#377eb8;fill-opacity:0.4;stroke:#000000;stroke-opacity:0.4;" x="0.0" xlink:href="#m30b67d2c0b" y="432.0"/>
    </g>
   </g>
   <g id="PolyCollection_3">
    <defs>
     <path d="M 96.043682 -256.614998 
L 96.043682 -243.616558 
L 99.111668 -244.667939 
L 102.179653 -235.278795 
L 105.247639 -234.853065 
L 108.315624 -234.633071 
L 111.38361 -233.733811 
L 114.451595 -234.757174 
L 117.51958 -234.045744 
L 120.587566 -234.472319 
L 123.655551 -233.763054 
L 126.723537 -233.046589 
L 129.791522 -234.158919 
L 132.859508 -238.130057 
L 135.927493 -238.438892 
L 138.995479 -241.053218 
L 142.063464 -243.114263 
L 145.13145 -240.885748 
L 148.199435 -236.729982 
L 151.26742 -234.51305 
L 154.335406 -236.32126 
L 157.403391 -240.288523 
L 160.471377 -239.226039 
L 163.539362 -236.175182 
L 166.607348 -237.45773 
L 169.675333 -235.204396 
L 172.743319 -238.259863 
L 175.811304 -236.469636 
L 178.87929 -233.98863 
L 181.947275 -234.002385 
L 185.01526 -234.447899 
L 188.083246 -234.378196 
L 191.151231 -234.050345 
L 194.219217 -233.964193 
L 197.287202 -234.316681 
L 200.355188 -233.435359 
L 203.423173 -233.895365 
L 206.491159 -233.973756 
L 209.559144 -234.538362 
L 212.62713 -233.708382 
L 215.695115 -233.827097 
L 218.7631 -234.522814 
L 221.831086 -236.247837 
L 224.899071 -238.169843 
L 227.967057 -238.147984 
L 231.035042 -237.802533 
L 234.103028 -240.839449 
L 237.171013 -242.272324 
L 240.238999 -243.305959 
L 243.306984 -243.469066 
L 246.37497 -242.81435 
L 249.442955 -242.642892 
L 252.51094 -242.263052 
L 255.578926 -242.950985 
L 258.646911 -246.420119 
L 261.714897 -246.858816 
L 264.782882 -246.753601 
L 267.850868 -242.265437 
L 270.918853 -241.251274 
L 270.918853 -252.303385 
L 270.918853 -252.303385 
L 267.850868 -254.48933 
L 264.782882 -258.878447 
L 261.714897 -258.270458 
L 258.646911 -259.704126 
L 255.578926 -262.230637 
L 252.51094 -263.182711 
L 249.442955 -260.596008 
L 246.37497 -261.729251 
L 243.306984 -266.816344 
L 240.238999 -267.131756 
L 237.171013 -274.088897 
L 234.103028 -276.546439 
L 231.035042 -278.31398 
L 227.967057 -273.707743 
L 224.899071 -273.942636 
L 221.831086 -279.906882 
L 218.7631 -280.047709 
L 215.695115 -281.318177 
L 212.62713 -279.538668 
L 209.559144 -279.0405 
L 206.491159 -279.625713 
L 203.423173 -282.110111 
L 200.355188 -279.501801 
L 197.287202 -285.024932 
L 194.219217 -283.588119 
L 191.151231 -284.881721 
L 188.083246 -285.346247 
L 185.01526 -287.935155 
L 181.947275 -285.415367 
L 178.87929 -290.282428 
L 175.811304 -291.855201 
L 172.743319 -294.799208 
L 169.675333 -303.560217 
L 166.607348 -295.909181 
L 163.539362 -305.712036 
L 160.471377 -303.26624 
L 157.403391 -308.331694 
L 154.335406 -324.825663 
L 151.26742 -325.161432 
L 148.199435 -323.524044 
L 145.13145 -322.3035 
L 142.063464 -315.794846 
L 138.995479 -310.911637 
L 135.927493 -300.21249 
L 132.859508 -294.35507 
L 129.791522 -285.220199 
L 126.723537 -276.433288 
L 123.655551 -295.882812 
L 120.587566 -315.885835 
L 117.51958 -303.7561 
L 114.451595 -312.907895 
L 111.38361 -321.403509 
L 108.315624 -320.167594 
L 105.247639 -309.685954 
L 102.179653 -320.884308 
L 99.111668 -300.499467 
L 96.043682 -256.614998 
z
" id="m7ce2aa6d59" style="stroke:#000000;stroke-opacity:0.4;"/>
    </defs>
    <g clip-path="url(#pcaf7f2ef09)">
     <use style="fill:#4eae4b;fill-opacity:0.4;stroke:#000000;stroke-opacity:0.4;" x="0.0" xlink:href="#m7ce2aa6d59" y="432.0"/>
    </g>
   </g>
   <g id="PolyCollection_4">
    <defs>
     <path d="M 96.043682 -256.614998 
L 96.043682 -256.614998 
L 99.111668 -300.499467 
L 102.179653 -320.884308 
L 105.247639 -309.685954 
L 108.315624 -320.167594 
L 111.38361 -321.403509 
L 114.451595 -312.907895 
L 117.51958 -303.7561 
L 120.587566 -315.885835 
L 123.655551 -295.882812 
L 126.723537 -276.433288 
L 129.791522 -285.220199 
L 132.859508 -294.35507 
L 135.927493 -300.21249 
L 138.995479 -310.911637 
L 142.063464 -315.794846 
L 145.13145 -322.3035 
L 148.199435 -323.524044 
L 151.26742 -325.161432 
L 154.335406 -324.825663 
L 157.403391 -308.331694 
L 160.471377 -303.26624 
L 163.539362 -305.712036 
L 166.607348 -295.909181 
L 169.675333 -303.560217 
L 172.743319 -294.799208 
L 175.811304 -291.855201 
L 178.87929 -290.282428 
L 181.947275 -285.415367 
L 185.01526 -287.935155 
L 188.083246 -285.346247 
L 191.151231 -284.881721 
L 194.219217 -283.588119 
L 197.287202 -285.024932 
L 200.355188 -279.501801 
L 203.423173 -282.110111 
L 206.491159 -279.625713 
L 209.559144 -279.0405 
L 212.62713 -279.538668 
L 215.695115 -281.318177 
L 218.7631 -280.047709 
L 221.831086 -279.906882 
L 224.899071 -273.942636 
L 227.967057 -273.707743 
L 231.035042 -278.31398 
L 234.103028 -276.546439 
L 237.171013 -274.088897 
L 240.238999 -267.131756 
L 243.306984 -266.816344 
L 246.37497 -261.729251 
L 249.442955 -260.596008 
L 252.51094 -263.182711 
L 255.578926 -262.230637 
L 258.646911 -259.704126 
L 261.714897 -258.270458 
L 264.782882 -258.878447 
L 267.850868 -254.48933 
L 270.918853 -252.303385 
L 270.918853 -252.303385 
L 270.918853 -252.303385 
L 267.850868 -254.48933 
L 264.782882 -258.878447 
L 261.714897 -258.270458 
L 258.646911 -259.704126 
L 255.578926 -262.230637 
L 252.51094 -263.182711 
L 249.442955 -260.59605 
L 246.37497 -261.729548 
L 243.306984 -266.8166 
L 240.238999 -267.131756 
L 237.171013 -274.088897 
L 234.103028 -276.546439 
L 231.035042 -278.31398 
L 227.967057 -273.707743 
L 224.899071 -273.942636 
L 221.831086 -279.906882 
L 218.7631 -280.047709 
L 215.695115 -281.318177 
L 212.62713 -279.538668 
L 209.559144 -279.0405 
L 206.491159 -279.625713 
L 203.423173 -282.110111 
L 200.355188 -279.501801 
L 197.287202 -285.024932 
L 194.219217 -283.588119 
L 191.151231 -284.881721 
L 188.083246 -285.346247 
L 185.01526 -287.935155 
L 181.947275 -285.415367 
L 178.87929 -290.282428 
L 175.811304 -291.855201 
L 172.743319 -294.799208 
L 169.675333 -303.560217 
L 166.607348 -295.909181 
L 163.539362 -305.712036 
L 160.471377 -303.26624 
L 157.403391 -308.331694 
L 154.335406 -324.825663 
L 151.26742 -325.161432 
L 148.199435 -323.524044 
L 145.13145 -322.3035 
L 142.063464 -315.794846 
L 138.995479 -310.911637 
L 135.927493 -300.21249 
L 132.859508 -294.35507 
L 129.791522 -285.220199 
L 126.723537 -276.433288 
L 123.655551 -295.882812 
L 120.587566 -315.885835 
L 117.51958 -303.7561 
L 114.451595 -312.907895 
L 111.38361 -321.403509 
L 108.315624 -320.167594 
L 105.247639 -309.685954 
L 102.179653 -320.884308 
L 99.111668 -300.499467 
L 96.043682 -256.614998 
z
" id="m4892c47673" style="stroke:#000000;stroke-opacity:0.4;"/>
    </defs>
    <g clip-path="url(#pcaf7f2ef09)">
     <use style="fill:#994fa1;fill-opacity:0.4;stroke:#000000;stroke-opacity:0.4;" x="0.0" xlink:href="#m4892c47673" y="432.0"/>
    </g>
   </g>
   <g id="PolyCollection_5">
    <defs>
     <path d="M 96.043682 -256.614998 
L 96.043682 -256.614998 
L 99.111668 -300.499467 
L 102.179653 -320.884308 
L 105.247639 -309.685954 
L 108.315624 -320.167594 
L 111.38361 -321.403509 
L 114.451595 -312.907895 
L 117.51958 -303.7561 
L 120.587566 -315.885835 
L 123.655551 -295.882812 
L 126.723537 -276.433288 
L 129.791522 -285.220199 
L 132.859508 -294.35507 
L 135.927493 -300.21249 
L 138.995479 -310.911637 
L 142.063464 -315.794846 
L 145.13145 -322.3035 
L 148.199435 -323.524044 
L 151.26742 -325.161432 
L 154.335406 -324.825663 
L 157.403391 -308.331694 
L 160.471377 -303.26624 
L 163.539362 -305.712036 
L 166.607348 -295.909181 
L 169.675333 -303.560217 
L 172.743319 -294.799208 
L 175.811304 -291.855201 
L 178.87929 -290.282428 
L 181.947275 -285.415367 
L 185.01526 -287.935155 
L 188.083246 -285.346247 
L 191.151231 -284.881721 
L 194.219217 -283.588119 
L 197.287202 -285.024932 
L 200.355188 -279.501801 
L 203.423173 -282.110111 
L 206.491159 -279.625713 
L 209.559144 -279.0405 
L 212.62713 -279.538668 
L 215.695115 -281.318177 
L 218.7631 -280.047709 
L 221.831086 -279.906882 
L 224.899071 -273.942636 
L 227.967057 -273.707743 
L 231.035042 -278.31398 
L 234.103028 -276.546439 
L 237.171013 -274.088897 
L 240.238999 -267.131756 
L 243.306984 -266.8166 
L 246.37497 -261.729548 
L 249.442955 -260.59605 
L 252.51094 -263.182711 
L 255.578926 -262.230637 
L 258.646911 -259.704126 
L 261.714897 -258.270458 
L 264.782882 -258.878447 
L 267.850868 -254.48933 
L 270.918853 -252.303385 
L 270.918853 -252.304192 
L 270.918853 -252.304192 
L 267.850868 -254.489926 
L 264.782882 -258.87942 
L 261.714897 -258.272629 
L 258.646911 -259.707844 
L 255.578926 -262.231658 
L 252.51094 -263.189878 
L 249.442955 -260.599977 
L 246.37497 -261.729548 
L 243.306984 -266.8166 
L 240.238999 -267.13228 
L 237.171013 -274.088897 
L 234.103028 -276.546439 
L 231.035042 -278.31398 
L 227.967057 -273.707743 
L 224.899071 -273.942636 
L 221.831086 -279.906882 
L 218.7631 -280.047709 
L 215.695115 -281.318177 
L 212.62713 -279.538668 
L 209.559144 -279.0405 
L 206.491159 -279.625713 
L 203.423173 -282.110111 
L 200.355188 -279.501801 
L 197.287202 -285.024932 
L 194.219217 -283.588119 
L 191.151231 -284.881721 
L 188.083246 -285.346247 
L 185.01526 -287.935155 
L 181.947275 -285.415367 
L 178.87929 -290.282428 
L 175.811304 -291.855201 
L 172.743319 -294.799208 
L 169.675333 -303.560217 
L 166.607348 -295.909181 
L 163.539362 -305.712036 
L 160.471377 -303.26624 
L 157.403391 -308.331694 
L 154.335406 -324.825663 
L 151.26742 -325.161432 
L 148.199435 -323.524044 
L 145.13145 -322.3035 
L 142.063464 -315.794846 
L 138.995479 -310.911637 
L 135.927493 -300.21249 
L 132.859508 -294.35507 
L 129.791522 -285.220199 
L 126.723537 -276.433288 
L 123.655551 -295.882812 
L 120.587566 -315.885835 
L 117.51958 -303.7561 
L 114.451595 -312.907895 
L 111.38361 -321.403509 
L 108.315624 -320.167594 
L 105.247639 -309.685954 
L 102.179653 -320.884308 
L 99.111668 -300.499467 
L 96.043682 -256.614998 
z
" id="m59c8e5c704" style="stroke:#000000;stroke-opacity:0.4;"/>
    </defs>
    <g clip-path="url(#pcaf7f2ef09)">
     <use style="fill:#ff8101;fill-opacity:0.4;stroke:#000000;stroke-opacity:0.4;" x="0.0" xlink:href="#m59c8e5c704" y="432.0"/>
    </g>
   </g>
   <g id="PolyCollection_6">
    <defs>
     <path d="M 96.043682 -256.614998 
L 96.043682 -256.614998 
L 99.111668 -300.499467 
L 102.179653 -320.884308 
L 105.247639 -309.685954 
L 108.315624 -320.167594 
L 111.38361 -321.403509 
L 114.451595 -312.907895 
L 117.51958 -303.7561 
L 120.587566 -315.885835 
L 123.655551 -295.882812 
L 126.723537 -276.433288 
L 129.791522 -285.220199 
L 132.859508 -294.35507 
L 135.927493 -300.21249 
L 138.995479 -310.911637 
L 142.063464 -315.794846 
L 145.13145 -322.3035 
L 148.199435 -323.524044 
L 151.26742 -325.161432 
L 154.335406 -324.825663 
L 157.403391 -308.331694 
L 160.471377 -303.26624 
L 163.539362 -305.712036 
L 166.607348 -295.909181 
L 169.675333 -303.560217 
L 172.743319 -294.799208 
L 175.811304 -291.855201 
L 178.87929 -290.282428 
L 181.947275 -285.415367 
L 185.01526 -287.935155 
L 188.083246 -285.346247 
L 191.151231 -284.881721 
L 194.219217 -283.588119 
L 197.287202 -285.024932 
L 200.355188 -279.501801 
L 203.423173 -282.110111 
L 206.491159 -279.625713 
L 209.559144 -279.0405 
L 212.62713 -279.538668 
L 215.695115 -281.318177 
L 218.7631 -280.047709 
L 221.831086 -279.906882 
L 224.899071 -273.942636 
L 227.967057 -273.707743 
L 231.035042 -278.31398 
L 234.103028 -276.546439 
L 237.171013 -274.088897 
L 240.238999 -267.13228 
L 243.306984 -266.8166 
L 246.37497 -261.729548 
L 249.442955 -260.599977 
L 252.51094 -263.189878 
L 255.578926 -262.231658 
L 258.646911 -259.707844 
L 261.714897 -258.272629 
L 264.782882 -258.87942 
L 267.850868 -254.489926 
L 270.918853 -252.304192 
L 270.918853 -252.304192 
L 270.918853 -252.304192 
L 267.850868 -254.489926 
L 264.782882 -258.87942 
L 261.714897 -258.272629 
L 258.646911 -259.707844 
L 255.578926 -262.231658 
L 252.51094 -263.189878 
L 249.442955 -260.599977 
L 246.37497 -261.729548 
L 243.306984 -266.8166 
L 240.238999 -267.13228 
L 237.171013 -274.088897 
L 234.103028 -276.546439 
L 231.035042 -278.31398 
L 227.967057 -273.707743 
L 224.899071 -273.942636 
L 221.831086 -279.906882 
L 218.7631 -280.047709 
L 215.695115 -281.318177 
L 212.62713 -279.538668 
L 209.559144 -279.0405 
L 206.491159 -279.625713 
L 203.423173 -282.110111 
L 200.355188 -279.501801 
L 197.287202 -285.024932 
L 194.219217 -283.588119 
L 191.151231 -284.881721 
L 188.083246 -285.346247 
L 185.01526 -287.935155 
L 181.947275 -285.415367 
L 178.87929 -290.282428 
L 175.811304 -291.855201 
L 172.743319 -294.799208 
L 169.675333 -303.560217 
L 166.607348 -295.909181 
L 163.539362 -305.712036 
L 160.471377 -303.26624 
L 157.403391 -308.331694 
L 154.335406 -324.825663 
L 151.26742 -325.161432 
L 148.199435 -323.524044 
L 145.13145 -322.3035 
L 142.063464 -315.794846 
L 138.995479 -310.911637 
L 135.927493 -300.21249 
L 132.859508 -294.35507 
L 129.791522 -285.220199 
L 126.723537 -276.433288 
L 123.655551 -295.882812 
L 120.587566 -315.885835 
L 117.51958 -303.7561 
L 114.451595 -312.907895 
L 111.38361 -321.403509 
L 108.315624 -320.167594 
L 105.247639 -309.685954 
L 102.179653 -320.884308 
L 99.111668 -300.499467 
L 96.043682 -256.614998 
z
" id="mff9d1419f0" style="stroke:#000000;stroke-opacity:0.4;"/>
    </defs>
    <g clip-path="url(#pcaf7f2ef09)">
     <use style="fill:#fdfc33;fill-opacity:0.4;stroke:#000000;stroke-opacity:0.4;" x="0.0" xlink:href="#mff9d1419f0" y="432.0"/>
    </g>
   </g>
   <g id="PolyCollection_7">
    <defs>
     <path d="M 96.043682 -283.292572 
L 96.043682 -256.614998 
L 99.111668 -300.499467 
L 102.179653 -320.884308 
L 105.247639 -309.685954 
L 108.315624 -320.167594 
L 111.38361 -321.403509 
L 114.451595 -312.907895 
L 117.51958 -303.7561 
L 120.587566 -315.885835 
L 123.655551 -295.882812 
L 126.723537 -276.433288 
L 129.791522 -285.220199 
L 132.859508 -294.35507 
L 135.927493 -300.21249 
L 138.995479 -310.911637 
L 142.063464 -315.794846 
L 145.13145 -322.3035 
L 148.199435 -323.524044 
L 151.26742 -325.161432 
L 154.335406 -324.825663 
L 157.403391 -308.331694 
L 160.471377 -303.26624 
L 163.539362 -305.712036 
L 166.607348 -295.909181 
L 169.675333 -303.560217 
L 172.743319 -294.799208 
L 175.811304 -291.855201 
L 178.87929 -290.282428 
L 181.947275 -285.415367 
L 185.01526 -287.935155 
L 188.083246 -285.346247 
L 191.151231 -284.881721 
L 194.219217 -283.588119 
L 197.287202 -285.024932 
L 200.355188 -279.501801 
L 203.423173 -282.110111 
L 206.491159 -279.625713 
L 209.559144 -279.0405 
L 212.62713 -279.538668 
L 215.695115 -281.318177 
L 218.7631 -280.047709 
L 221.831086 -279.906882 
L 224.899071 -273.942636 
L 227.967057 -273.707743 
L 231.035042 -278.31398 
L 234.103028 -276.546439 
L 237.171013 -274.088897 
L 240.238999 -267.13228 
L 243.306984 -266.8166 
L 246.37497 -261.729548 
L 249.442955 -260.599977 
L 252.51094 -263.189878 
L 255.578926 -262.231658 
L 258.646911 -259.707844 
L 261.714897 -258.272629 
L 264.782882 -258.87942 
L 267.850868 -254.489926 
L 270.918853 -252.304192 
L 270.918853 -252.35201 
L 270.918853 -252.35201 
L 267.850868 -254.530486 
L 264.782882 -258.922005 
L 261.714897 -258.313862 
L 258.646911 -259.761296 
L 255.578926 -262.282939 
L 252.51094 -263.249635 
L 249.442955 -260.696672 
L 246.37497 -261.876511 
L 243.306984 -266.994095 
L 240.238999 -267.357473 
L 237.171013 -274.259842 
L 234.103028 -276.702615 
L 231.035042 -278.427542 
L 227.967057 -273.855029 
L 224.899071 -274.135757 
L 221.831086 -280.047466 
L 218.7631 -280.121456 
L 215.695115 -281.395796 
L 212.62713 -279.615489 
L 209.559144 -279.139799 
L 206.491159 -279.719628 
L 203.423173 -282.235118 
L 200.355188 -279.623575 
L 197.287202 -285.19452 
L 194.219217 -283.729238 
L 191.151231 -285.022904 
L 188.083246 -285.55075 
L 185.01526 -288.137102 
L 181.947275 -285.627301 
L 178.87929 -290.475212 
L 175.811304 -292.581833 
L 172.743319 -295.559892 
L 169.675333 -303.814452 
L 166.607348 -296.407519 
L 163.539362 -306.059368 
L 160.471377 -303.744069 
L 157.403391 -309.217308 
L 154.335406 -325.271152 
L 151.26742 -325.430657 
L 148.199435 -326.139141 
L 145.13145 -326.549536 
L 142.063464 -316.915782 
L 138.995479 -312.317434 
L 135.927493 -301.016538 
L 132.859508 -295.058515 
L 129.791522 -285.436254 
L 126.723537 -276.671208 
L 123.655551 -296.21553 
L 120.587566 -316.142443 
L 117.51958 -304.130859 
L 114.451595 -314.383503 
L 111.38361 -323.04686 
L 108.315624 -321.56649 
L 105.247639 -311.564534 
L 102.179653 -322.653942 
L 99.111668 -306.678282 
L 96.043682 -283.292572 
z
" id="m8ccf339ba8" style="stroke:#000000;stroke-opacity:0.4;"/>
    </defs>
    <g clip-path="url(#pcaf7f2ef09)">
     <use style="fill:#e41a1c;fill-opacity:0.4;stroke:#000000;stroke-opacity:0.4;" x="0.0" xlink:href="#m8ccf339ba8" y="432.0"/>
    </g>
   </g>
   <g id="PolyCollection_8">
    <defs>
     <path d="M 96.043682 -388.8 
L 96.043682 -283.292572 
L 99.111668 -306.678282 
L 102.179653 -322.653942 
L 105.247639 -311.564534 
L 108.315624 -321.56649 
L 111.38361 -323.04686 
L 114.451595 -314.383503 
L 117.51958 -304.130859 
L 120.587566 -316.142443 
L 123.655551 -296.21553 
L 126.723537 -276.671208 
L 129.791522 -285.436254 
L 132.859508 -295.058515 
L 135.927493 -301.016538 
L 138.995479 -312.317434 
L 142.063464 -316.915782 
L 145.13145 -326.549536 
L 148.199435 -326.139141 
L 151.26742 -325.430657 
L 154.335406 -325.271152 
L 157.403391 -309.217308 
L 160.471377 -303.744069 
L 163.539362 -306.059368 
L 166.607348 -296.407519 
L 169.675333 -303.814452 
L 172.743319 -295.559892 
L 175.811304 -292.581833 
L 178.87929 -290.475212 
L 181.947275 -285.627301 
L 185.01526 -288.137102 
L 188.083246 -285.55075 
L 191.151231 -285.022904 
L 194.219217 -283.729238 
L 197.287202 -285.19452 
L 200.355188 -279.623575 
L 203.423173 -282.235118 
L 206.491159 -279.719628 
L 209.559144 -279.139799 
L 212.62713 -279.615489 
L 215.695115 -281.395796 
L 218.7631 -280.121456 
L 221.831086 -280.047466 
L 224.899071 -274.135757 
L 227.967057 -273.855029 
L 231.035042 -278.427542 
L 234.103028 -276.702615 
L 237.171013 -274.259842 
L 240.238999 -267.357473 
L 243.306984 -266.994095 
L 246.37497 -261.876511 
L 249.442955 -260.696672 
L 252.51094 -263.249635 
L 255.578926 -262.282939 
L 258.646911 -259.761296 
L 261.714897 -258.313862 
L 264.782882 -258.922005 
L 267.850868 -254.530486 
L 270.918853 -252.35201 
L 270.918853 -388.8 
L 270.918853 -388.8 
L 267.850868 -388.8 
L 264.782882 -388.8 
L 261.714897 -388.8 
L 258.646911 -388.8 
L 255.578926 -388.8 
L 252.51094 -388.8 
L 249.442955 -388.8 
L 246.37497 -388.8 
L 243.306984 -388.8 
L 240.238999 -388.8 
L 237.171013 -388.8 
L 234.103028 -388.8 
L 231.035042 -388.8 
L 227.967057 -388.8 
L 224.899071 -388.8 
L 221.831086 -388.8 
L 218.7631 -388.8 
L 215.695115 -388.8 
L 212.62713 -388.8 
L 209.559144 -388.8 
L 206.491159 -388.8 
L 203.423173 -388.8 
L 200.355188 -388.8 
L 197.287202 -388.8 
L 194.219217 -388.8 
L 191.151231 -388.8 
L 188.083246 -388.8 
L 185.01526 -388.8 
L 181.947275 -388.8 
L 178.87929 -388.8 
L 175.811304 -388.8 
L 172.743319 -388.8 
L 169.675333 -388.8 
L 166.607348 -388.8 
L 163.539362 -388.8 
L 160.471377 -388.8 
L 157.403391 -388.8 
L 154.335406 -388.8 
L 151.26742 -388.8 
L 148.199435 -388.8 
L 145.13145 -388.8 
L 142.063464 -388.8 
L 138.995479 -388.8 
L 135.927493 -388.8 
L 132.859508 -388.8 
L 129.791522 -388.8 
L 126.723537 -388.8 
L 123.655551 -388.8 
L 120.587566 -388.8 
L 117.51958 -388.8 
L 114.451595 -388.8 
L 111.38361 -388.8 
L 108.315624 -388.8 
L 105.247639 -388.8 
L 102.179653 -388.8 
L 99.111668 -388.8 
L 96.043682 -388.8 
z
" id="m249cd1f920" style="stroke:#000000;stroke-opacity:0.4;"/>
    </defs>
    <g clip-path="url(#pcaf7f2ef09)">
     <use style="fill:#377eb8;fill-opacity:0.4;stroke:#000000;stroke-opacity:0.4;" x="0.0" xlink:href="#m249cd1f920" y="432.0"/>
    </g>
   </g>
   <g id="patch_3">
    <path d="M 72 43.2 
L 274.909091 43.2 
" style="fill:none;stroke:#000000;stroke-linecap:square;stroke-linejoin:miter;"/>
   </g>
   <g id="patch_4">
    <path d="M 72 200.290909 
L 274.909091 200.290909 
" style="fill:none;stroke:#000000;stroke-linecap:square;stroke-linejoin:miter;"/>
   </g>
   <g id="patch_5">
    <path d="M 72 200.290909 
L 72 43.2 
" style="fill:none;stroke:#000000;stroke-linecap:square;stroke-linejoin:miter;"/>
   </g>
   <g id="patch_6">
    <path d="M 274.909091 200.290909 
L 274.909091 43.2 
" style="fill:none;stroke:#000000;stroke-linecap:square;stroke-linejoin:miter;"/>
   </g>
   <g id="matplotlib.axis_1">
    <g id="xtick_1">
     <g id="line2d_1">
      <defs>
       <path d="M 0 0 
L 0 -4 
" id="m87cf401525" style="stroke:#000000;stroke-width:0.5;"/>
      </defs>
      <g>
       <use style="stroke:#000000;stroke-width:0.5;" x="72.0" xlink:href="#m87cf401525" y="200.290909091"/>
      </g>
     </g>
     <g id="line2d_2">
      <defs>
       <path d="M 0 0 
L 0 4 
" id="mb76b4917e7" style="stroke:#000000;stroke-width:0.5;"/>
      </defs>
      <g>
       <use style="stroke:#000000;stroke-width:0.5;" x="72.0" xlink:href="#mb76b4917e7" y="43.2"/>
      </g>
     </g>
     <g id="text_1">
      <!-- 1.43 -->
      <defs>
       <path d="M 37.796875 64.3125 
L 12.890625 25.390625 
L 37.796875 25.390625 
z
M 35.203125 72.90625 
L 47.609375 72.90625 
L 47.609375 25.390625 
L 58.015625 25.390625 
L 58.015625 17.1875 
L 47.609375 17.1875 
L 47.609375 0 
L 37.796875 0 
L 37.796875 17.1875 
L 4.890625 17.1875 
L 4.890625 26.703125 
z
" id="BitstreamVeraSans-Roman-34"/>
       <path d="M 10.6875 12.40625 
L 21 12.40625 
L 21 0 
L 10.6875 0 
z
" id="BitstreamVeraSans-Roman-2e"/>
       <path d="M 12.40625 8.296875 
L 28.515625 8.296875 
L 28.515625 63.921875 
L 10.984375 60.40625 
L 10.984375 69.390625 
L 28.421875 72.90625 
L 38.28125 72.90625 
L 38.28125 8.296875 
L 54.390625 8.296875 
L 54.390625 0 
L 12.40625 0 
z
" id="BitstreamVeraSans-Roman-31"/>
       <path d="M 40.578125 39.3125 
Q 47.65625 37.796875 51.625 33 
Q 55.609375 28.21875 55.609375 21.1875 
Q 55.609375 10.40625 48.1875 4.484375 
Q 40.765625 -1.421875 27.09375 -1.421875 
Q 22.515625 -1.421875 17.65625 -0.515625 
Q 12.796875 0.390625 7.625 2.203125 
L 7.625 11.71875 
Q 11.71875 9.328125 16.59375 8.109375 
Q 21.484375 6.890625 26.8125 6.890625 
Q 36.078125 6.890625 40.9375 10.546875 
Q 45.796875 14.203125 45.796875 21.1875 
Q 45.796875 27.640625 41.28125 31.265625 
Q 36.765625 34.90625 28.71875 34.90625 
L 20.21875 34.90625 
L 20.21875 43.015625 
L 29.109375 43.015625 
Q 36.375 43.015625 40.234375 45.921875 
Q 44.09375 48.828125 44.09375 54.296875 
Q 44.09375 59.90625 40.109375 62.90625 
Q 36.140625 65.921875 28.71875 65.921875 
Q 24.65625 65.921875 20.015625 65.03125 
Q 15.375 64.15625 9.8125 62.3125 
L 9.8125 71.09375 
Q 15.4375 72.65625 20.34375 73.4375 
Q 25.25 74.21875 29.59375 74.21875 
Q 40.828125 74.21875 47.359375 69.109375 
Q 53.90625 64.015625 53.90625 55.328125 
Q 53.90625 49.265625 50.4375 45.09375 
Q 46.96875 40.921875 40.578125 39.3125 
" id="BitstreamVeraSans-Roman-33"/>
      </defs>
      <g transform="translate(58.640625 213.409034091)scale(0.12 -0.12)">
       <use xlink:href="#BitstreamVeraSans-Roman-31"/>
       <use x="63.623046875" xlink:href="#BitstreamVeraSans-Roman-2e"/>
       <use x="95.41015625" xlink:href="#BitstreamVeraSans-Roman-34"/>
       <use x="159.033203125" xlink:href="#BitstreamVeraSans-Roman-33"/>
      </g>
     </g>
    </g>
    <g id="xtick_2">
     <g id="line2d_3">
      <g>
       <use style="stroke:#000000;stroke-width:0.5;" x="97.3636363636" xlink:href="#m87cf401525" y="200.290909091"/>
      </g>
     </g>
     <g id="line2d_4">
      <g>
       <use style="stroke:#000000;stroke-width:0.5;" x="97.3636363636" xlink:href="#mb76b4917e7" y="43.2"/>
      </g>
     </g>
     <g id="text_2">
      <!-- 1.44 -->
      <g transform="translate(84.0042613636 213.409034091)scale(0.12 -0.12)">
       <use xlink:href="#BitstreamVeraSans-Roman-31"/>
       <use x="63.623046875" xlink:href="#BitstreamVeraSans-Roman-2e"/>
       <use x="95.41015625" xlink:href="#BitstreamVeraSans-Roman-34"/>
       <use x="159.033203125" xlink:href="#BitstreamVeraSans-Roman-34"/>
      </g>
     </g>
    </g>
    <g id="xtick_3">
     <g id="line2d_5">
      <g>
       <use style="stroke:#000000;stroke-width:0.5;" x="122.727272727" xlink:href="#m87cf401525" y="200.290909091"/>
      </g>
     </g>
     <g id="line2d_6">
      <g>
       <use style="stroke:#000000;stroke-width:0.5;" x="122.727272727" xlink:href="#mb76b4917e7" y="43.2"/>
      </g>
     </g>
     <g id="text_3">
      <!-- 1.45 -->
      <defs>
       <path d="M 10.796875 72.90625 
L 49.515625 72.90625 
L 49.515625 64.59375 
L 19.828125 64.59375 
L 19.828125 46.734375 
Q 21.96875 47.46875 24.109375 47.828125 
Q 26.265625 48.1875 28.421875 48.1875 
Q 40.625 48.1875 47.75 41.5 
Q 54.890625 34.8125 54.890625 23.390625 
Q 54.890625 11.625 47.5625 5.09375 
Q 40.234375 -1.421875 26.90625 -1.421875 
Q 22.3125 -1.421875 17.546875 -0.640625 
Q 12.796875 0.140625 7.71875 1.703125 
L 7.71875 11.625 
Q 12.109375 9.234375 16.796875 8.0625 
Q 21.484375 6.890625 26.703125 6.890625 
Q 35.15625 6.890625 40.078125 11.328125 
Q 45.015625 15.765625 45.015625 23.390625 
Q 45.015625 31 40.078125 35.4375 
Q 35.15625 39.890625 26.703125 39.890625 
Q 22.75 39.890625 18.8125 39.015625 
Q 14.890625 38.140625 10.796875 36.28125 
z
" id="BitstreamVeraSans-Roman-35"/>
      </defs>
      <g transform="translate(109.367897727 213.409034091)scale(0.12 -0.12)">
       <use xlink:href="#BitstreamVeraSans-Roman-31"/>
       <use x="63.623046875" xlink:href="#BitstreamVeraSans-Roman-2e"/>
       <use x="95.41015625" xlink:href="#BitstreamVeraSans-Roman-34"/>
       <use x="159.033203125" xlink:href="#BitstreamVeraSans-Roman-35"/>
      </g>
     </g>
    </g>
    <g id="xtick_4">
     <g id="line2d_7">
      <g>
       <use style="stroke:#000000;stroke-width:0.5;" x="148.090909091" xlink:href="#m87cf401525" y="200.290909091"/>
      </g>
     </g>
     <g id="line2d_8">
      <g>
       <use style="stroke:#000000;stroke-width:0.5;" x="148.090909091" xlink:href="#mb76b4917e7" y="43.2"/>
      </g>
     </g>
     <g id="text_4">
      <!-- 1.46 -->
      <defs>
       <path d="M 33.015625 40.375 
Q 26.375 40.375 22.484375 35.828125 
Q 18.609375 31.296875 18.609375 23.390625 
Q 18.609375 15.53125 22.484375 10.953125 
Q 26.375 6.390625 33.015625 6.390625 
Q 39.65625 6.390625 43.53125 10.953125 
Q 47.40625 15.53125 47.40625 23.390625 
Q 47.40625 31.296875 43.53125 35.828125 
Q 39.65625 40.375 33.015625 40.375 
M 52.59375 71.296875 
L 52.59375 62.3125 
Q 48.875 64.0625 45.09375 64.984375 
Q 41.3125 65.921875 37.59375 65.921875 
Q 27.828125 65.921875 22.671875 59.328125 
Q 17.53125 52.734375 16.796875 39.40625 
Q 19.671875 43.65625 24.015625 45.921875 
Q 28.375 48.1875 33.59375 48.1875 
Q 44.578125 48.1875 50.953125 41.515625 
Q 57.328125 34.859375 57.328125 23.390625 
Q 57.328125 12.15625 50.6875 5.359375 
Q 44.046875 -1.421875 33.015625 -1.421875 
Q 20.359375 -1.421875 13.671875 8.265625 
Q 6.984375 17.96875 6.984375 36.375 
Q 6.984375 53.65625 15.1875 63.9375 
Q 23.390625 74.21875 37.203125 74.21875 
Q 40.921875 74.21875 44.703125 73.484375 
Q 48.484375 72.75 52.59375 71.296875 
" id="BitstreamVeraSans-Roman-36"/>
      </defs>
      <g transform="translate(134.731534091 213.409034091)scale(0.12 -0.12)">
       <use xlink:href="#BitstreamVeraSans-Roman-31"/>
       <use x="63.623046875" xlink:href="#BitstreamVeraSans-Roman-2e"/>
       <use x="95.41015625" xlink:href="#BitstreamVeraSans-Roman-34"/>
       <use x="159.033203125" xlink:href="#BitstreamVeraSans-Roman-36"/>
      </g>
     </g>
    </g>
    <g id="xtick_5">
     <g id="line2d_9">
      <g>
       <use style="stroke:#000000;stroke-width:0.5;" x="173.454545455" xlink:href="#m87cf401525" y="200.290909091"/>
      </g>
     </g>
     <g id="line2d_10">
      <g>
       <use style="stroke:#000000;stroke-width:0.5;" x="173.454545455" xlink:href="#mb76b4917e7" y="43.2"/>
      </g>
     </g>
     <g id="text_5">
      <!-- 1.47 -->
      <defs>
       <path d="M 8.203125 72.90625 
L 55.078125 72.90625 
L 55.078125 68.703125 
L 28.609375 0 
L 18.3125 0 
L 43.21875 64.59375 
L 8.203125 64.59375 
z
" id="BitstreamVeraSans-Roman-37"/>
      </defs>
      <g transform="translate(160.095170455 213.409034091)scale(0.12 -0.12)">
       <use xlink:href="#BitstreamVeraSans-Roman-31"/>
       <use x="63.623046875" xlink:href="#BitstreamVeraSans-Roman-2e"/>
       <use x="95.41015625" xlink:href="#BitstreamVeraSans-Roman-34"/>
       <use x="159.033203125" xlink:href="#BitstreamVeraSans-Roman-37"/>
      </g>
     </g>
    </g>
    <g id="xtick_6">
     <g id="line2d_11">
      <g>
       <use style="stroke:#000000;stroke-width:0.5;" x="198.818181818" xlink:href="#m87cf401525" y="200.290909091"/>
      </g>
     </g>
     <g id="line2d_12">
      <g>
       <use style="stroke:#000000;stroke-width:0.5;" x="198.818181818" xlink:href="#mb76b4917e7" y="43.2"/>
      </g>
     </g>
     <g id="text_6">
      <!-- 1.48 -->
      <defs>
       <path d="M 31.78125 34.625 
Q 24.75 34.625 20.71875 30.859375 
Q 16.703125 27.09375 16.703125 20.515625 
Q 16.703125 13.921875 20.71875 10.15625 
Q 24.75 6.390625 31.78125 6.390625 
Q 38.8125 6.390625 42.859375 10.171875 
Q 46.921875 13.96875 46.921875 20.515625 
Q 46.921875 27.09375 42.890625 30.859375 
Q 38.875 34.625 31.78125 34.625 
M 21.921875 38.8125 
Q 15.578125 40.375 12.03125 44.71875 
Q 8.5 49.078125 8.5 55.328125 
Q 8.5 64.0625 14.71875 69.140625 
Q 20.953125 74.21875 31.78125 74.21875 
Q 42.671875 74.21875 48.875 69.140625 
Q 55.078125 64.0625 55.078125 55.328125 
Q 55.078125 49.078125 51.53125 44.71875 
Q 48 40.375 41.703125 38.8125 
Q 48.828125 37.15625 52.796875 32.3125 
Q 56.78125 27.484375 56.78125 20.515625 
Q 56.78125 9.90625 50.3125 4.234375 
Q 43.84375 -1.421875 31.78125 -1.421875 
Q 19.734375 -1.421875 13.25 4.234375 
Q 6.78125 9.90625 6.78125 20.515625 
Q 6.78125 27.484375 10.78125 32.3125 
Q 14.796875 37.15625 21.921875 38.8125 
M 18.3125 54.390625 
Q 18.3125 48.734375 21.84375 45.5625 
Q 25.390625 42.390625 31.78125 42.390625 
Q 38.140625 42.390625 41.71875 45.5625 
Q 45.3125 48.734375 45.3125 54.390625 
Q 45.3125 60.0625 41.71875 63.234375 
Q 38.140625 66.40625 31.78125 66.40625 
Q 25.390625 66.40625 21.84375 63.234375 
Q 18.3125 60.0625 18.3125 54.390625 
" id="BitstreamVeraSans-Roman-38"/>
      </defs>
      <g transform="translate(185.458806818 213.409034091)scale(0.12 -0.12)">
       <use xlink:href="#BitstreamVeraSans-Roman-31"/>
       <use x="63.623046875" xlink:href="#BitstreamVeraSans-Roman-2e"/>
       <use x="95.41015625" xlink:href="#BitstreamVeraSans-Roman-34"/>
       <use x="159.033203125" xlink:href="#BitstreamVeraSans-Roman-38"/>
      </g>
     </g>
    </g>
    <g id="xtick_7">
     <g id="line2d_13">
      <g>
       <use style="stroke:#000000;stroke-width:0.5;" x="224.181818182" xlink:href="#m87cf401525" y="200.290909091"/>
      </g>
     </g>
     <g id="line2d_14">
      <g>
       <use style="stroke:#000000;stroke-width:0.5;" x="224.181818182" xlink:href="#mb76b4917e7" y="43.2"/>
      </g>
     </g>
     <g id="text_7">
      <!-- 1.49 -->
      <defs>
       <path d="M 10.984375 1.515625 
L 10.984375 10.5 
Q 14.703125 8.734375 18.5 7.8125 
Q 22.3125 6.890625 25.984375 6.890625 
Q 35.75 6.890625 40.890625 13.453125 
Q 46.046875 20.015625 46.78125 33.40625 
Q 43.953125 29.203125 39.59375 26.953125 
Q 35.25 24.703125 29.984375 24.703125 
Q 19.046875 24.703125 12.671875 31.3125 
Q 6.296875 37.9375 6.296875 49.421875 
Q 6.296875 60.640625 12.9375 67.421875 
Q 19.578125 74.21875 30.609375 74.21875 
Q 43.265625 74.21875 49.921875 64.515625 
Q 56.59375 54.828125 56.59375 36.375 
Q 56.59375 19.140625 48.40625 8.859375 
Q 40.234375 -1.421875 26.421875 -1.421875 
Q 22.703125 -1.421875 18.890625 -0.6875 
Q 15.09375 0.046875 10.984375 1.515625 
M 30.609375 32.421875 
Q 37.25 32.421875 41.125 36.953125 
Q 45.015625 41.5 45.015625 49.421875 
Q 45.015625 57.28125 41.125 61.84375 
Q 37.25 66.40625 30.609375 66.40625 
Q 23.96875 66.40625 20.09375 61.84375 
Q 16.21875 57.28125 16.21875 49.421875 
Q 16.21875 41.5 20.09375 36.953125 
Q 23.96875 32.421875 30.609375 32.421875 
" id="BitstreamVeraSans-Roman-39"/>
      </defs>
      <g transform="translate(210.822443182 213.409034091)scale(0.12 -0.12)">
       <use xlink:href="#BitstreamVeraSans-Roman-31"/>
       <use x="63.623046875" xlink:href="#BitstreamVeraSans-Roman-2e"/>
       <use x="95.41015625" xlink:href="#BitstreamVeraSans-Roman-34"/>
       <use x="159.033203125" xlink:href="#BitstreamVeraSans-Roman-39"/>
      </g>
     </g>
    </g>
    <g id="xtick_8">
     <g id="line2d_15">
      <g>
       <use style="stroke:#000000;stroke-width:0.5;" x="249.545454545" xlink:href="#m87cf401525" y="200.290909091"/>
      </g>
     </g>
     <g id="line2d_16">
      <g>
       <use style="stroke:#000000;stroke-width:0.5;" x="249.545454545" xlink:href="#mb76b4917e7" y="43.2"/>
      </g>
     </g>
     <g id="text_8">
      <!-- 1.50 -->
      <defs>
       <path d="M 31.78125 66.40625 
Q 24.171875 66.40625 20.328125 58.90625 
Q 16.5 51.421875 16.5 36.375 
Q 16.5 21.390625 20.328125 13.890625 
Q 24.171875 6.390625 31.78125 6.390625 
Q 39.453125 6.390625 43.28125 13.890625 
Q 47.125 21.390625 47.125 36.375 
Q 47.125 51.421875 43.28125 58.90625 
Q 39.453125 66.40625 31.78125 66.40625 
M 31.78125 74.21875 
Q 44.046875 74.21875 50.515625 64.515625 
Q 56.984375 54.828125 56.984375 36.375 
Q 56.984375 17.96875 50.515625 8.265625 
Q 44.046875 -1.421875 31.78125 -1.421875 
Q 19.53125 -1.421875 13.0625 8.265625 
Q 6.59375 17.96875 6.59375 36.375 
Q 6.59375 54.828125 13.0625 64.515625 
Q 19.53125 74.21875 31.78125 74.21875 
" id="BitstreamVeraSans-Roman-30"/>
      </defs>
      <g transform="translate(236.186079545 213.409034091)scale(0.12 -0.12)">
       <use xlink:href="#BitstreamVeraSans-Roman-31"/>
       <use x="63.623046875" xlink:href="#BitstreamVeraSans-Roman-2e"/>
       <use x="95.41015625" xlink:href="#BitstreamVeraSans-Roman-35"/>
       <use x="159.033203125" xlink:href="#BitstreamVeraSans-Roman-30"/>
      </g>
     </g>
    </g>
    <g id="xtick_9">
     <g id="line2d_17">
      <g>
       <use style="stroke:#000000;stroke-width:0.5;" x="274.909090909" xlink:href="#m87cf401525" y="200.290909091"/>
      </g>
     </g>
     <g id="line2d_18">
      <g>
       <use style="stroke:#000000;stroke-width:0.5;" x="274.909090909" xlink:href="#mb76b4917e7" y="43.2"/>
      </g>
     </g>
     <g id="text_9">
      <!-- 1.51 -->
      <g transform="translate(261.549715909 213.409034091)scale(0.12 -0.12)">
       <use xlink:href="#BitstreamVeraSans-Roman-31"/>
       <use x="63.623046875" xlink:href="#BitstreamVeraSans-Roman-2e"/>
       <use x="95.41015625" xlink:href="#BitstreamVeraSans-Roman-35"/>
       <use x="159.033203125" xlink:href="#BitstreamVeraSans-Roman-31"/>
      </g>
     </g>
    </g>
    <g id="text_10">
     <!-- 1e9 -->
     <defs>
      <path d="M 56.203125 29.59375 
L 56.203125 25.203125 
L 14.890625 25.203125 
Q 15.484375 15.921875 20.484375 11.0625 
Q 25.484375 6.203125 34.421875 6.203125 
Q 39.59375 6.203125 44.453125 7.46875 
Q 49.3125 8.734375 54.109375 11.28125 
L 54.109375 2.78125 
Q 49.265625 0.734375 44.1875 -0.34375 
Q 39.109375 -1.421875 33.890625 -1.421875 
Q 20.796875 -1.421875 13.15625 6.1875 
Q 5.515625 13.8125 5.515625 26.8125 
Q 5.515625 40.234375 12.765625 48.109375 
Q 20.015625 56 32.328125 56 
Q 43.359375 56 49.78125 48.890625 
Q 56.203125 41.796875 56.203125 29.59375 
M 47.21875 32.234375 
Q 47.125 39.59375 43.09375 43.984375 
Q 39.0625 48.390625 32.421875 48.390625 
Q 24.90625 48.390625 20.390625 44.140625 
Q 15.875 39.890625 15.1875 32.171875 
z
" id="BitstreamVeraSans-Roman-65"/>
     </defs>
     <g transform="translate(252.255340909 228.022784091)scale(0.12 -0.12)">
      <use xlink:href="#BitstreamVeraSans-Roman-31"/>
      <use x="63.623046875" xlink:href="#BitstreamVeraSans-Roman-65"/>
      <use x="125.146484375" xlink:href="#BitstreamVeraSans-Roman-39"/>
     </g>
    </g>
   </g>
   <g id="matplotlib.axis_2">
    <g id="ytick_1">
     <g id="line2d_19">
      <defs>
       <path d="M 0 0 
L 4 0 
" id="mf1ebacab9f" style="stroke:#000000;stroke-width:0.5;"/>
      </defs>
      <g>
       <use style="stroke:#000000;stroke-width:0.5;" x="72.0" xlink:href="#mf1ebacab9f" y="200.290909091"/>
      </g>
     </g>
     <g id="line2d_20">
      <defs>
       <path d="M 0 0 
L -4 0 
" id="ma96a905f82" style="stroke:#000000;stroke-width:0.5;"/>
      </defs>
      <g>
       <use style="stroke:#000000;stroke-width:0.5;" x="274.909090909" xlink:href="#ma96a905f82" y="200.290909091"/>
      </g>
     </g>
     <g id="text_11">
      <!-- 0.0 -->
      <g transform="translate(48.91625 203.602159091)scale(0.12 -0.12)">
       <use xlink:href="#BitstreamVeraSans-Roman-30"/>
       <use x="63.623046875" xlink:href="#BitstreamVeraSans-Roman-2e"/>
       <use x="95.41015625" xlink:href="#BitstreamVeraSans-Roman-30"/>
      </g>
     </g>
    </g>
    <g id="ytick_2">
     <g id="line2d_21">
      <g>
       <use style="stroke:#000000;stroke-width:0.5;" x="72.0" xlink:href="#mf1ebacab9f" y="168.872727273"/>
      </g>
     </g>
     <g id="line2d_22">
      <g>
       <use style="stroke:#000000;stroke-width:0.5;" x="274.909090909" xlink:href="#ma96a905f82" y="168.872727273"/>
      </g>
     </g>
     <g id="text_12">
      <!-- 0.2 -->
      <defs>
       <path d="M 19.1875 8.296875 
L 53.609375 8.296875 
L 53.609375 0 
L 7.328125 0 
L 7.328125 8.296875 
Q 12.9375 14.109375 22.625 23.890625 
Q 32.328125 33.6875 34.8125 36.53125 
Q 39.546875 41.84375 41.421875 45.53125 
Q 43.3125 49.21875 43.3125 52.78125 
Q 43.3125 58.59375 39.234375 62.25 
Q 35.15625 65.921875 28.609375 65.921875 
Q 23.96875 65.921875 18.8125 64.3125 
Q 13.671875 62.703125 7.8125 59.421875 
L 7.8125 69.390625 
Q 13.765625 71.78125 18.9375 73 
Q 24.125 74.21875 28.421875 74.21875 
Q 39.75 74.21875 46.484375 68.546875 
Q 53.21875 62.890625 53.21875 53.421875 
Q 53.21875 48.921875 51.53125 44.890625 
Q 49.859375 40.875 45.40625 35.40625 
Q 44.1875 33.984375 37.640625 27.21875 
Q 31.109375 20.453125 19.1875 8.296875 
" id="BitstreamVeraSans-Roman-32"/>
      </defs>
      <g transform="translate(48.91625 172.183977273)scale(0.12 -0.12)">
       <use xlink:href="#BitstreamVeraSans-Roman-30"/>
       <use x="63.623046875" xlink:href="#BitstreamVeraSans-Roman-2e"/>
       <use x="95.41015625" xlink:href="#BitstreamVeraSans-Roman-32"/>
      </g>
     </g>
    </g>
    <g id="ytick_3">
     <g id="line2d_23">
      <g>
       <use style="stroke:#000000;stroke-width:0.5;" x="72.0" xlink:href="#mf1ebacab9f" y="137.454545455"/>
      </g>
     </g>
     <g id="line2d_24">
      <g>
       <use style="stroke:#000000;stroke-width:0.5;" x="274.909090909" xlink:href="#ma96a905f82" y="137.454545455"/>
      </g>
     </g>
     <g id="text_13">
      <!-- 0.4 -->
      <g transform="translate(48.91625 140.765795455)scale(0.12 -0.12)">
       <use xlink:href="#BitstreamVeraSans-Roman-30"/>
       <use x="63.623046875" xlink:href="#BitstreamVeraSans-Roman-2e"/>
       <use x="95.41015625" xlink:href="#BitstreamVeraSans-Roman-34"/>
      </g>
     </g>
    </g>
    <g id="ytick_4">
     <g id="line2d_25">
      <g>
       <use style="stroke:#000000;stroke-width:0.5;" x="72.0" xlink:href="#mf1ebacab9f" y="106.036363636"/>
      </g>
     </g>
     <g id="line2d_26">
      <g>
       <use style="stroke:#000000;stroke-width:0.5;" x="274.909090909" xlink:href="#ma96a905f82" y="106.036363636"/>
      </g>
     </g>
     <g id="text_14">
      <!-- 0.6 -->
      <g transform="translate(48.91625 109.347613636)scale(0.12 -0.12)">
       <use xlink:href="#BitstreamVeraSans-Roman-30"/>
       <use x="63.623046875" xlink:href="#BitstreamVeraSans-Roman-2e"/>
       <use x="95.41015625" xlink:href="#BitstreamVeraSans-Roman-36"/>
      </g>
     </g>
    </g>
    <g id="ytick_5">
     <g id="line2d_27">
      <g>
       <use style="stroke:#000000;stroke-width:0.5;" x="72.0" xlink:href="#mf1ebacab9f" y="74.6181818182"/>
      </g>
     </g>
     <g id="line2d_28">
      <g>
       <use style="stroke:#000000;stroke-width:0.5;" x="274.909090909" xlink:href="#ma96a905f82" y="74.6181818182"/>
      </g>
     </g>
     <g id="text_15">
      <!-- 0.8 -->
      <g transform="translate(48.91625 77.9294318182)scale(0.12 -0.12)">
       <use xlink:href="#BitstreamVeraSans-Roman-30"/>
       <use x="63.623046875" xlink:href="#BitstreamVeraSans-Roman-2e"/>
       <use x="95.41015625" xlink:href="#BitstreamVeraSans-Roman-38"/>
      </g>
     </g>
    </g>
    <g id="ytick_6">
     <g id="line2d_29">
      <g>
       <use style="stroke:#000000;stroke-width:0.5;" x="72.0" xlink:href="#mf1ebacab9f" y="43.2"/>
      </g>
     </g>
     <g id="line2d_30">
      <g>
       <use style="stroke:#000000;stroke-width:0.5;" x="274.909090909" xlink:href="#ma96a905f82" y="43.2"/>
      </g>
     </g>
     <g id="text_16">
      <!-- 1.0 -->
      <g transform="translate(48.91625 46.51125)scale(0.12 -0.12)">
       <use xlink:href="#BitstreamVeraSans-Roman-31"/>
       <use x="63.623046875" xlink:href="#BitstreamVeraSans-Roman-2e"/>
       <use x="95.41015625" xlink:href="#BitstreamVeraSans-Roman-30"/>
      </g>
     </g>
    </g>
   </g>
   <g id="legend_1">
    <g id="patch_7">
     <path d="M 285.054545 103.4125 
L 338.649077 103.4125 
L 338.649077 43.2 
L 285.054545 43.2 
z
" style="fill:#ffffff;stroke:#000000;stroke-linejoin:miter;"/>
    </g>
    <g id="patch_8">
     <path d="M 287.054545 48.999219 
L 297.054545 48.999219 
L 297.054545 45.499219 
L 287.054545 45.499219 
z
" style="fill:#e41a1c;opacity:0.4;stroke:#000000;stroke-linejoin:miter;"/>
    </g>
    <g id="text_17">
     <!-- Exchanges -->
     <defs>
      <path d="M 54.890625 54.6875 
L 35.109375 28.078125 
L 55.90625 0 
L 45.3125 0 
L 29.390625 21.484375 
L 13.484375 0 
L 2.875 0 
L 24.125 28.609375 
L 4.6875 54.6875 
L 15.28125 54.6875 
L 29.78125 35.203125 
L 44.28125 54.6875 
z
" id="BitstreamVeraSans-Roman-78"/>
      <path d="M 45.40625 27.984375 
Q 45.40625 37.75 41.375 43.109375 
Q 37.359375 48.484375 30.078125 48.484375 
Q 22.859375 48.484375 18.828125 43.109375 
Q 14.796875 37.75 14.796875 27.984375 
Q 14.796875 18.265625 18.828125 12.890625 
Q 22.859375 7.515625 30.078125 7.515625 
Q 37.359375 7.515625 41.375 12.890625 
Q 45.40625 18.265625 45.40625 27.984375 
M 54.390625 6.78125 
Q 54.390625 -7.171875 48.1875 -13.984375 
Q 42 -20.796875 29.203125 -20.796875 
Q 24.46875 -20.796875 20.265625 -20.09375 
Q 16.0625 -19.390625 12.109375 -17.921875 
L 12.109375 -9.1875 
Q 16.0625 -11.328125 19.921875 -12.34375 
Q 23.78125 -13.375 27.78125 -13.375 
Q 36.625 -13.375 41.015625 -8.765625 
Q 45.40625 -4.15625 45.40625 5.171875 
L 45.40625 9.625 
Q 42.625 4.78125 38.28125 2.390625 
Q 33.9375 0 27.875 0 
Q 17.828125 0 11.671875 7.65625 
Q 5.515625 15.328125 5.515625 27.984375 
Q 5.515625 40.671875 11.671875 48.328125 
Q 17.828125 56 27.875 56 
Q 33.9375 56 38.28125 53.609375 
Q 42.625 51.21875 45.40625 46.390625 
L 45.40625 54.6875 
L 54.390625 54.6875 
z
" id="BitstreamVeraSans-Roman-67"/>
      <path d="M 34.28125 27.484375 
Q 23.390625 27.484375 19.1875 25 
Q 14.984375 22.515625 14.984375 16.5 
Q 14.984375 11.71875 18.140625 8.90625 
Q 21.296875 6.109375 26.703125 6.109375 
Q 34.1875 6.109375 38.703125 11.40625 
Q 43.21875 16.703125 43.21875 25.484375 
L 43.21875 27.484375 
z
M 52.203125 31.203125 
L 52.203125 0 
L 43.21875 0 
L 43.21875 8.296875 
Q 40.140625 3.328125 35.546875 0.953125 
Q 30.953125 -1.421875 24.3125 -1.421875 
Q 15.921875 -1.421875 10.953125 3.296875 
Q 6 8.015625 6 15.921875 
Q 6 25.140625 12.171875 29.828125 
Q 18.359375 34.515625 30.609375 34.515625 
L 43.21875 34.515625 
L 43.21875 35.40625 
Q 43.21875 41.609375 39.140625 45 
Q 35.0625 48.390625 27.6875 48.390625 
Q 23 48.390625 18.546875 47.265625 
Q 14.109375 46.140625 10.015625 43.890625 
L 10.015625 52.203125 
Q 14.9375 54.109375 19.578125 55.046875 
Q 24.21875 56 28.609375 56 
Q 40.484375 56 46.34375 49.84375 
Q 52.203125 43.703125 52.203125 31.203125 
" id="BitstreamVeraSans-Roman-61"/>
      <path d="M 9.8125 72.90625 
L 55.90625 72.90625 
L 55.90625 64.59375 
L 19.671875 64.59375 
L 19.671875 43.015625 
L 54.390625 43.015625 
L 54.390625 34.71875 
L 19.671875 34.71875 
L 19.671875 8.296875 
L 56.78125 8.296875 
L 56.78125 0 
L 9.8125 0 
z
" id="BitstreamVeraSans-Roman-45"/>
      <path d="M 48.78125 52.59375 
L 48.78125 44.1875 
Q 44.96875 46.296875 41.140625 47.34375 
Q 37.3125 48.390625 33.40625 48.390625 
Q 24.65625 48.390625 19.8125 42.84375 
Q 14.984375 37.3125 14.984375 27.296875 
Q 14.984375 17.28125 19.8125 11.734375 
Q 24.65625 6.203125 33.40625 6.203125 
Q 37.3125 6.203125 41.140625 7.25 
Q 44.96875 8.296875 48.78125 10.40625 
L 48.78125 2.09375 
Q 45.015625 0.34375 40.984375 -0.53125 
Q 36.96875 -1.421875 32.421875 -1.421875 
Q 20.0625 -1.421875 12.78125 6.34375 
Q 5.515625 14.109375 5.515625 27.296875 
Q 5.515625 40.671875 12.859375 48.328125 
Q 20.21875 56 33.015625 56 
Q 37.15625 56 41.109375 55.140625 
Q 45.0625 54.296875 48.78125 52.59375 
" id="BitstreamVeraSans-Roman-63"/>
      <path d="M 54.890625 33.015625 
L 54.890625 0 
L 45.90625 0 
L 45.90625 32.71875 
Q 45.90625 40.484375 42.875 44.328125 
Q 39.84375 48.1875 33.796875 48.1875 
Q 26.515625 48.1875 22.3125 43.546875 
Q 18.109375 38.921875 18.109375 30.90625 
L 18.109375 0 
L 9.078125 0 
L 9.078125 75.984375 
L 18.109375 75.984375 
L 18.109375 46.1875 
Q 21.34375 51.125 25.703125 53.5625 
Q 30.078125 56 35.796875 56 
Q 45.21875 56 50.046875 50.171875 
Q 54.890625 44.34375 54.890625 33.015625 
" id="BitstreamVeraSans-Roman-68"/>
      <path d="M 54.890625 33.015625 
L 54.890625 0 
L 45.90625 0 
L 45.90625 32.71875 
Q 45.90625 40.484375 42.875 44.328125 
Q 39.84375 48.1875 33.796875 48.1875 
Q 26.515625 48.1875 22.3125 43.546875 
Q 18.109375 38.921875 18.109375 30.90625 
L 18.109375 0 
L 9.078125 0 
L 9.078125 54.6875 
L 18.109375 54.6875 
L 18.109375 46.1875 
Q 21.34375 51.125 25.703125 53.5625 
Q 30.078125 56 35.796875 56 
Q 45.21875 56 50.046875 50.171875 
Q 54.890625 44.34375 54.890625 33.015625 
" id="BitstreamVeraSans-Roman-6e"/>
      <path d="M 44.28125 53.078125 
L 44.28125 44.578125 
Q 40.484375 46.53125 36.375 47.5 
Q 32.28125 48.484375 27.875 48.484375 
Q 21.1875 48.484375 17.84375 46.4375 
Q 14.5 44.390625 14.5 40.28125 
Q 14.5 37.15625 16.890625 35.375 
Q 19.28125 33.59375 26.515625 31.984375 
L 29.59375 31.296875 
Q 39.15625 29.25 43.1875 25.515625 
Q 47.21875 21.78125 47.21875 15.09375 
Q 47.21875 7.46875 41.1875 3.015625 
Q 35.15625 -1.421875 24.609375 -1.421875 
Q 20.21875 -1.421875 15.453125 -0.5625 
Q 10.6875 0.296875 5.421875 2 
L 5.421875 11.28125 
Q 10.40625 8.6875 15.234375 7.390625 
Q 20.0625 6.109375 24.8125 6.109375 
Q 31.15625 6.109375 34.5625 8.28125 
Q 37.984375 10.453125 37.984375 14.40625 
Q 37.984375 18.0625 35.515625 20.015625 
Q 33.0625 21.96875 24.703125 23.78125 
L 21.578125 24.515625 
Q 13.234375 26.265625 9.515625 29.90625 
Q 5.8125 33.546875 5.8125 39.890625 
Q 5.8125 47.609375 11.28125 51.796875 
Q 16.75 56 26.8125 56 
Q 31.78125 56 36.171875 55.265625 
Q 40.578125 54.546875 44.28125 53.078125 
" id="BitstreamVeraSans-Roman-73"/>
     </defs>
     <g transform="translate(301.054545455 48.99921875)scale(0.05 -0.05)">
      <use xlink:href="#BitstreamVeraSans-Roman-45"/>
      <use x="63.18359375" xlink:href="#BitstreamVeraSans-Roman-78"/>
      <use x="122.34765625" xlink:href="#BitstreamVeraSans-Roman-63"/>
      <use x="177.328125" xlink:href="#BitstreamVeraSans-Roman-68"/>
      <use x="240.70703125" xlink:href="#BitstreamVeraSans-Roman-61"/>
      <use x="301.986328125" xlink:href="#BitstreamVeraSans-Roman-6e"/>
      <use x="365.365234375" xlink:href="#BitstreamVeraSans-Roman-67"/>
      <use x="428.841796875" xlink:href="#BitstreamVeraSans-Roman-65"/>
      <use x="490.365234375" xlink:href="#BitstreamVeraSans-Roman-73"/>
     </g>
    </g>
    <g id="patch_9">
     <path d="M 287.054545 56.338281 
L 297.054545 56.338281 
L 297.054545 52.838281 
L 287.054545 52.838281 
z
" style="fill:#377eb8;opacity:0.4;stroke:#000000;stroke-linejoin:miter;"/>
    </g>
    <g id="text_18">
     <!-- Tokens -->
     <defs>
      <path d="M -0.296875 72.90625 
L 61.375 72.90625 
L 61.375 64.59375 
L 35.5 64.59375 
L 35.5 0 
L 25.59375 0 
L 25.59375 64.59375 
L -0.296875 64.59375 
z
" id="BitstreamVeraSans-Roman-54"/>
      <path d="M 9.078125 75.984375 
L 18.109375 75.984375 
L 18.109375 31.109375 
L 44.921875 54.6875 
L 56.390625 54.6875 
L 27.390625 29.109375 
L 57.625 0 
L 45.90625 0 
L 18.109375 26.703125 
L 18.109375 0 
L 9.078125 0 
z
" id="BitstreamVeraSans-Roman-6b"/>
      <path d="M 30.609375 48.390625 
Q 23.390625 48.390625 19.1875 42.75 
Q 14.984375 37.109375 14.984375 27.296875 
Q 14.984375 17.484375 19.15625 11.84375 
Q 23.34375 6.203125 30.609375 6.203125 
Q 37.796875 6.203125 41.984375 11.859375 
Q 46.1875 17.53125 46.1875 27.296875 
Q 46.1875 37.015625 41.984375 42.703125 
Q 37.796875 48.390625 30.609375 48.390625 
M 30.609375 56 
Q 42.328125 56 49.015625 48.375 
Q 55.71875 40.765625 55.71875 27.296875 
Q 55.71875 13.875 49.015625 6.21875 
Q 42.328125 -1.421875 30.609375 -1.421875 
Q 18.84375 -1.421875 12.171875 6.21875 
Q 5.515625 13.875 5.515625 27.296875 
Q 5.515625 40.765625 12.171875 48.375 
Q 18.84375 56 30.609375 56 
" id="BitstreamVeraSans-Roman-6f"/>
     </defs>
     <g transform="translate(301.054545455 56.33828125)scale(0.05 -0.05)">
      <use xlink:href="#BitstreamVeraSans-Roman-54"/>
      <use x="60.818359375" xlink:href="#BitstreamVeraSans-Roman-6f"/>
      <use x="122.0" xlink:href="#BitstreamVeraSans-Roman-6b"/>
      <use x="179.86328125" xlink:href="#BitstreamVeraSans-Roman-65"/>
      <use x="241.38671875" xlink:href="#BitstreamVeraSans-Roman-6e"/>
      <use x="304.765625" xlink:href="#BitstreamVeraSans-Roman-73"/>
     </g>
    </g>
    <g id="patch_10">
     <path d="M 287.054545 63.677344 
L 297.054545 63.677344 
L 297.054545 60.177344 
L 287.054545 60.177344 
z
" style="fill:#4eae4b;opacity:0.4;stroke:#000000;stroke-linejoin:miter;"/>
    </g>
    <g id="text_19">
     <!-- Mining Pools -->
     <defs>
      <path d="M 9.8125 72.90625 
L 24.515625 72.90625 
L 43.109375 23.296875 
L 61.8125 72.90625 
L 76.515625 72.90625 
L 76.515625 0 
L 66.890625 0 
L 66.890625 64.015625 
L 48.09375 14.015625 
L 38.1875 14.015625 
L 19.390625 64.015625 
L 19.390625 0 
L 9.8125 0 
z
" id="BitstreamVeraSans-Roman-4d"/>
      <path id="BitstreamVeraSans-Roman-20"/>
      <path d="M 9.421875 75.984375 
L 18.40625 75.984375 
L 18.40625 0 
L 9.421875 0 
z
" id="BitstreamVeraSans-Roman-6c"/>
      <path d="M 19.671875 64.796875 
L 19.671875 37.40625 
L 32.078125 37.40625 
Q 38.96875 37.40625 42.71875 40.96875 
Q 46.484375 44.53125 46.484375 51.125 
Q 46.484375 57.671875 42.71875 61.234375 
Q 38.96875 64.796875 32.078125 64.796875 
z
M 9.8125 72.90625 
L 32.078125 72.90625 
Q 44.34375 72.90625 50.609375 67.359375 
Q 56.890625 61.8125 56.890625 51.125 
Q 56.890625 40.328125 50.609375 34.8125 
Q 44.34375 29.296875 32.078125 29.296875 
L 19.671875 29.296875 
L 19.671875 0 
L 9.8125 0 
z
" id="BitstreamVeraSans-Roman-50"/>
      <path d="M 9.421875 54.6875 
L 18.40625 54.6875 
L 18.40625 0 
L 9.421875 0 
z
M 9.421875 75.984375 
L 18.40625 75.984375 
L 18.40625 64.59375 
L 9.421875 64.59375 
z
" id="BitstreamVeraSans-Roman-69"/>
     </defs>
     <g transform="translate(301.054545455 63.67734375)scale(0.05 -0.05)">
      <use xlink:href="#BitstreamVeraSans-Roman-4d"/>
      <use x="86.279296875" xlink:href="#BitstreamVeraSans-Roman-69"/>
      <use x="114.0625" xlink:href="#BitstreamVeraSans-Roman-6e"/>
      <use x="177.44140625" xlink:href="#BitstreamVeraSans-Roman-69"/>
      <use x="205.224609375" xlink:href="#BitstreamVeraSans-Roman-6e"/>
      <use x="268.603515625" xlink:href="#BitstreamVeraSans-Roman-67"/>
      <use x="332.080078125" xlink:href="#BitstreamVeraSans-Roman-20"/>
      <use x="363.8671875" xlink:href="#BitstreamVeraSans-Roman-50"/>
      <use x="424.123046875" xlink:href="#BitstreamVeraSans-Roman-6f"/>
      <use x="485.3046875" xlink:href="#BitstreamVeraSans-Roman-6f"/>
      <use x="546.486328125" xlink:href="#BitstreamVeraSans-Roman-6c"/>
      <use x="574.26953125" xlink:href="#BitstreamVeraSans-Roman-73"/>
     </g>
    </g>
    <g id="patch_11">
     <path d="M 287.054545 71.016406 
L 297.054545 71.016406 
L 297.054545 67.516406 
L 287.054545 67.516406 
z
" style="fill:#994fa1;opacity:0.4;stroke:#000000;stroke-linejoin:miter;"/>
    </g>
    <g id="text_20">
     <!-- Dapps -->
     <defs>
      <path d="M 18.109375 8.203125 
L 18.109375 -20.796875 
L 9.078125 -20.796875 
L 9.078125 54.6875 
L 18.109375 54.6875 
L 18.109375 46.390625 
Q 20.953125 51.265625 25.265625 53.625 
Q 29.59375 56 35.59375 56 
Q 45.5625 56 51.78125 48.09375 
Q 58.015625 40.1875 58.015625 27.296875 
Q 58.015625 14.40625 51.78125 6.484375 
Q 45.5625 -1.421875 35.59375 -1.421875 
Q 29.59375 -1.421875 25.265625 0.953125 
Q 20.953125 3.328125 18.109375 8.203125 
M 48.6875 27.296875 
Q 48.6875 37.203125 44.609375 42.84375 
Q 40.53125 48.484375 33.40625 48.484375 
Q 26.265625 48.484375 22.1875 42.84375 
Q 18.109375 37.203125 18.109375 27.296875 
Q 18.109375 17.390625 22.1875 11.75 
Q 26.265625 6.109375 33.40625 6.109375 
Q 40.53125 6.109375 44.609375 11.75 
Q 48.6875 17.390625 48.6875 27.296875 
" id="BitstreamVeraSans-Roman-70"/>
      <path d="M 19.671875 64.796875 
L 19.671875 8.109375 
L 31.59375 8.109375 
Q 46.6875 8.109375 53.6875 14.9375 
Q 60.6875 21.78125 60.6875 36.53125 
Q 60.6875 51.171875 53.6875 57.984375 
Q 46.6875 64.796875 31.59375 64.796875 
z
M 9.8125 72.90625 
L 30.078125 72.90625 
Q 51.265625 72.90625 61.171875 64.09375 
Q 71.09375 55.28125 71.09375 36.53125 
Q 71.09375 17.671875 61.125 8.828125 
Q 51.171875 0 30.078125 0 
L 9.8125 0 
z
" id="BitstreamVeraSans-Roman-44"/>
     </defs>
     <g transform="translate(301.054545455 71.01640625)scale(0.05 -0.05)">
      <use xlink:href="#BitstreamVeraSans-Roman-44"/>
      <use x="77.001953125" xlink:href="#BitstreamVeraSans-Roman-61"/>
      <use x="138.28125" xlink:href="#BitstreamVeraSans-Roman-70"/>
      <use x="201.7578125" xlink:href="#BitstreamVeraSans-Roman-70"/>
      <use x="265.234375" xlink:href="#BitstreamVeraSans-Roman-73"/>
     </g>
    </g>
    <g id="patch_12">
     <path d="M 287.054545 78.355469 
L 297.054545 78.355469 
L 297.054545 74.855469 
L 287.054545 74.855469 
z
" style="fill:#ff8101;opacity:0.4;stroke:#000000;stroke-linejoin:miter;"/>
    </g>
    <g id="text_21">
     <!-- Scam -->
     <defs>
      <path d="M 53.515625 70.515625 
L 53.515625 60.890625 
Q 47.90625 63.578125 42.921875 64.890625 
Q 37.9375 66.21875 33.296875 66.21875 
Q 25.25 66.21875 20.875 63.09375 
Q 16.5 59.96875 16.5 54.203125 
Q 16.5 49.359375 19.40625 46.890625 
Q 22.3125 44.4375 30.421875 42.921875 
L 36.375 41.703125 
Q 47.40625 39.59375 52.65625 34.296875 
Q 57.90625 29 57.90625 20.125 
Q 57.90625 9.515625 50.796875 4.046875 
Q 43.703125 -1.421875 29.984375 -1.421875 
Q 24.8125 -1.421875 18.96875 -0.25 
Q 13.140625 0.921875 6.890625 3.21875 
L 6.890625 13.375 
Q 12.890625 10.015625 18.65625 8.296875 
Q 24.421875 6.59375 29.984375 6.59375 
Q 38.421875 6.59375 43.015625 9.90625 
Q 47.609375 13.234375 47.609375 19.390625 
Q 47.609375 24.75 44.3125 27.78125 
Q 41.015625 30.8125 33.5 32.328125 
L 27.484375 33.5 
Q 16.453125 35.6875 11.515625 40.375 
Q 6.59375 45.0625 6.59375 53.421875 
Q 6.59375 63.09375 13.40625 68.65625 
Q 20.21875 74.21875 32.171875 74.21875 
Q 37.3125 74.21875 42.625 73.28125 
Q 47.953125 72.359375 53.515625 70.515625 
" id="BitstreamVeraSans-Roman-53"/>
      <path d="M 52 44.1875 
Q 55.375 50.25 60.0625 53.125 
Q 64.75 56 71.09375 56 
Q 79.640625 56 84.28125 50.015625 
Q 88.921875 44.046875 88.921875 33.015625 
L 88.921875 0 
L 79.890625 0 
L 79.890625 32.71875 
Q 79.890625 40.578125 77.09375 44.375 
Q 74.3125 48.1875 68.609375 48.1875 
Q 61.625 48.1875 57.5625 43.546875 
Q 53.515625 38.921875 53.515625 30.90625 
L 53.515625 0 
L 44.484375 0 
L 44.484375 32.71875 
Q 44.484375 40.625 41.703125 44.40625 
Q 38.921875 48.1875 33.109375 48.1875 
Q 26.21875 48.1875 22.15625 43.53125 
Q 18.109375 38.875 18.109375 30.90625 
L 18.109375 0 
L 9.078125 0 
L 9.078125 54.6875 
L 18.109375 54.6875 
L 18.109375 46.1875 
Q 21.1875 51.21875 25.484375 53.609375 
Q 29.78125 56 35.6875 56 
Q 41.65625 56 45.828125 52.96875 
Q 50 49.953125 52 44.1875 
" id="BitstreamVeraSans-Roman-6d"/>
     </defs>
     <g transform="translate(301.054545455 78.35546875)scale(0.05 -0.05)">
      <use xlink:href="#BitstreamVeraSans-Roman-53"/>
      <use x="63.4765625" xlink:href="#BitstreamVeraSans-Roman-63"/>
      <use x="118.45703125" xlink:href="#BitstreamVeraSans-Roman-61"/>
      <use x="179.736328125" xlink:href="#BitstreamVeraSans-Roman-6d"/>
     </g>
    </g>
    <g id="patch_13">
     <path d="M 287.054545 85.694531 
L 297.054545 85.694531 
L 297.054545 82.194531 
L 287.054545 82.194531 
z
" style="fill:#fdfc33;opacity:0.4;stroke:#000000;stroke-linejoin:miter;"/>
    </g>
    <g id="text_22">
     <!-- Eth Developer -->
     <defs>
      <path d="M 2.984375 54.6875 
L 12.5 54.6875 
L 29.59375 8.796875 
L 46.6875 54.6875 
L 56.203125 54.6875 
L 35.6875 0 
L 23.484375 0 
z
" id="BitstreamVeraSans-Roman-76"/>
      <path d="M 41.109375 46.296875 
Q 39.59375 47.171875 37.8125 47.578125 
Q 36.03125 48 33.890625 48 
Q 26.265625 48 22.1875 43.046875 
Q 18.109375 38.09375 18.109375 28.8125 
L 18.109375 0 
L 9.078125 0 
L 9.078125 54.6875 
L 18.109375 54.6875 
L 18.109375 46.1875 
Q 20.953125 51.171875 25.484375 53.578125 
Q 30.03125 56 36.53125 56 
Q 37.453125 56 38.578125 55.875 
Q 39.703125 55.765625 41.0625 55.515625 
z
" id="BitstreamVeraSans-Roman-72"/>
      <path d="M 18.3125 70.21875 
L 18.3125 54.6875 
L 36.8125 54.6875 
L 36.8125 47.703125 
L 18.3125 47.703125 
L 18.3125 18.015625 
Q 18.3125 11.328125 20.140625 9.421875 
Q 21.96875 7.515625 27.59375 7.515625 
L 36.8125 7.515625 
L 36.8125 0 
L 27.59375 0 
Q 17.1875 0 13.234375 3.875 
Q 9.28125 7.765625 9.28125 18.015625 
L 9.28125 47.703125 
L 2.6875 47.703125 
L 2.6875 54.6875 
L 9.28125 54.6875 
L 9.28125 70.21875 
z
" id="BitstreamVeraSans-Roman-74"/>
     </defs>
     <g transform="translate(301.054545455 85.69453125)scale(0.05 -0.05)">
      <use xlink:href="#BitstreamVeraSans-Roman-45"/>
      <use x="63.18359375" xlink:href="#BitstreamVeraSans-Roman-74"/>
      <use x="102.392578125" xlink:href="#BitstreamVeraSans-Roman-68"/>
      <use x="165.771484375" xlink:href="#BitstreamVeraSans-Roman-20"/>
      <use x="197.55859375" xlink:href="#BitstreamVeraSans-Roman-44"/>
      <use x="274.560546875" xlink:href="#BitstreamVeraSans-Roman-65"/>
      <use x="336.083984375" xlink:href="#BitstreamVeraSans-Roman-76"/>
      <use x="395.263671875" xlink:href="#BitstreamVeraSans-Roman-65"/>
      <use x="456.787109375" xlink:href="#BitstreamVeraSans-Roman-6c"/>
      <use x="484.5703125" xlink:href="#BitstreamVeraSans-Roman-6f"/>
      <use x="545.751953125" xlink:href="#BitstreamVeraSans-Roman-70"/>
      <use x="609.228515625" xlink:href="#BitstreamVeraSans-Roman-65"/>
      <use x="670.751953125" xlink:href="#BitstreamVeraSans-Roman-72"/>
     </g>
    </g>
    <g id="patch_14">
     <path d="M 287.054545 93.033594 
L 297.054545 93.033594 
L 297.054545 89.533594 
L 287.054545 89.533594 
z
" style="fill:#e41a1c;opacity:0.4;stroke:#000000;stroke-linejoin:miter;"/>
    </g>
    <g id="text_23">
     <!-- Genesis -->
     <defs>
      <path d="M 59.515625 10.40625 
L 59.515625 29.984375 
L 43.40625 29.984375 
L 43.40625 38.09375 
L 69.28125 38.09375 
L 69.28125 6.78125 
Q 63.578125 2.734375 56.6875 0.65625 
Q 49.8125 -1.421875 42 -1.421875 
Q 24.90625 -1.421875 15.25 8.5625 
Q 5.609375 18.5625 5.609375 36.375 
Q 5.609375 54.25 15.25 64.234375 
Q 24.90625 74.21875 42 74.21875 
Q 49.125 74.21875 55.546875 72.453125 
Q 61.96875 70.703125 67.390625 67.28125 
L 67.390625 56.78125 
Q 61.921875 61.421875 55.765625 63.765625 
Q 49.609375 66.109375 42.828125 66.109375 
Q 29.4375 66.109375 22.71875 58.640625 
Q 16.015625 51.171875 16.015625 36.375 
Q 16.015625 21.625 22.71875 14.15625 
Q 29.4375 6.6875 42.828125 6.6875 
Q 48.046875 6.6875 52.140625 7.59375 
Q 56.25 8.5 59.515625 10.40625 
" id="BitstreamVeraSans-Roman-47"/>
     </defs>
     <g transform="translate(301.054545455 93.03359375)scale(0.05 -0.05)">
      <use xlink:href="#BitstreamVeraSans-Roman-47"/>
      <use x="77.490234375" xlink:href="#BitstreamVeraSans-Roman-65"/>
      <use x="139.013671875" xlink:href="#BitstreamVeraSans-Roman-6e"/>
      <use x="202.392578125" xlink:href="#BitstreamVeraSans-Roman-65"/>
      <use x="263.916015625" xlink:href="#BitstreamVeraSans-Roman-73"/>
      <use x="316.015625" xlink:href="#BitstreamVeraSans-Roman-69"/>
      <use x="343.798828125" xlink:href="#BitstreamVeraSans-Roman-73"/>
     </g>
    </g>
    <g id="patch_15">
     <path d="M 287.054545 100.372656 
L 297.054545 100.372656 
L 297.054545 96.872656 
L 287.054545 96.872656 
z
" style="fill:#377eb8;opacity:0.4;stroke:#000000;stroke-linejoin:miter;"/>
    </g>
    <g id="text_24">
     <!-- Untagged -->
     <defs>
      <path d="M 45.40625 46.390625 
L 45.40625 75.984375 
L 54.390625 75.984375 
L 54.390625 0 
L 45.40625 0 
L 45.40625 8.203125 
Q 42.578125 3.328125 38.25 0.953125 
Q 33.9375 -1.421875 27.875 -1.421875 
Q 17.96875 -1.421875 11.734375 6.484375 
Q 5.515625 14.40625 5.515625 27.296875 
Q 5.515625 40.1875 11.734375 48.09375 
Q 17.96875 56 27.875 56 
Q 33.9375 56 38.25 53.625 
Q 42.578125 51.265625 45.40625 46.390625 
M 14.796875 27.296875 
Q 14.796875 17.390625 18.875 11.75 
Q 22.953125 6.109375 30.078125 6.109375 
Q 37.203125 6.109375 41.296875 11.75 
Q 45.40625 17.390625 45.40625 27.296875 
Q 45.40625 37.203125 41.296875 42.84375 
Q 37.203125 48.484375 30.078125 48.484375 
Q 22.953125 48.484375 18.875 42.84375 
Q 14.796875 37.203125 14.796875 27.296875 
" id="BitstreamVeraSans-Roman-64"/>
      <path d="M 8.6875 72.90625 
L 18.609375 72.90625 
L 18.609375 28.609375 
Q 18.609375 16.890625 22.84375 11.734375 
Q 27.09375 6.59375 36.625 6.59375 
Q 46.09375 6.59375 50.34375 11.734375 
Q 54.59375 16.890625 54.59375 28.609375 
L 54.59375 72.90625 
L 64.5 72.90625 
L 64.5 27.390625 
Q 64.5 13.140625 57.4375 5.859375 
Q 50.390625 -1.421875 36.625 -1.421875 
Q 22.796875 -1.421875 15.734375 5.859375 
Q 8.6875 13.140625 8.6875 27.390625 
z
" id="BitstreamVeraSans-Roman-55"/>
     </defs>
     <g transform="translate(301.054545455 100.37265625)scale(0.05 -0.05)">
      <use xlink:href="#BitstreamVeraSans-Roman-55"/>
      <use x="73.193359375" xlink:href="#BitstreamVeraSans-Roman-6e"/>
      <use x="136.572265625" xlink:href="#BitstreamVeraSans-Roman-74"/>
      <use x="175.78125" xlink:href="#BitstreamVeraSans-Roman-61"/>
      <use x="237.060546875" xlink:href="#BitstreamVeraSans-Roman-67"/>
      <use x="300.537109375" xlink:href="#BitstreamVeraSans-Roman-67"/>
      <use x="364.013671875" xlink:href="#BitstreamVeraSans-Roman-65"/>
      <use x="425.537109375" xlink:href="#BitstreamVeraSans-Roman-64"/>
     </g>
    </g>
   </g>
  </g>
 </g>
 <defs>
  <clipPath id="pcaf7f2ef09">
   <rect height="157.090909091" width="202.909090909" x="72.0" y="43.2"/>
  </clipPath>
 </defs>
</svg>
