<?xml version="1.0" encoding="utf-8" standalone="no"?>
<!DOCTYPE svg PUBLIC "-//W3C//DTD SVG 1.1//EN"
  "http://www.w3.org/Graphics/SVG/1.1/DTD/svg11.dtd">
<!-- Created with matplotlib (http://matplotlib.org/) -->
<svg height="432pt" version="1.1" viewBox="0 0 576 432" width="576pt" xmlns="http://www.w3.org/2000/svg" xmlns:xlink="http://www.w3.org/1999/xlink">
 <defs>
  <style type="text/css">
*{stroke-linecap:butt;stroke-linejoin:round;stroke-miterlimit:100000;}
  </style>
 </defs>
 <g id="figure_1">
  <g id="patch_1">
   <path d="M 0 432 
L 576 432 
L 576 0 
L 0 0 
z
" style="fill:#ffffff;"/>
  </g>
  <g id="axes_1">
   <g id="patch_2">
    <path d="M 72 388.8 
L 518.4 388.8 
L 518.4 43.2 
L 72 43.2 
z
" style="fill:#ffffff;"/>
   </g>
   <g id="line2d_1">
    <path clip-path="url(#p6075e72d2d)" d="M 72 388.799957 
L 156.489347 388.688846 
L 156.67823 388.683101 
L 161.09201 388.57199 
L 161.278996 388.567714 
L 165.599311 388.456603 
L 165.786575 388.45211 
L 170.291867 388.341 
L 170.479467 388.336248 
L 174.892466 388.225138 
L 175.079675 388.220688 
L 179.350774 388.109578 
L 179.53949 388.103962 
L 183.913987 387.992851 
L 184.101196 387.988402 
L 188.417995 387.877291 
L 188.606543 387.871805 
L 192.914806 387.760694 
L 193.101512 387.756634 
L 197.532311 387.645523 
L 197.719465 387.641117 
L 202.046029 387.530006 
L 202.233685 387.525211 
L 206.547192 387.414101 
L 206.734401 387.409651 
L 210.877942 387.298541 
L 211.065876 387.29353 
L 215.348024 387.182419 
L 215.536851 387.176717 
L 219.6391 387.065606 
L 219.827536 387.060206 
L 223.97967 386.949096 
L 224.167604 386.944085 
L 228.42202 386.832974 
L 228.609787 386.828093 
L 232.802989 386.716982 
L 232.990477 386.712317 
L 237.217216 386.601206 
L 237.404592 386.596627 
L 241.589704 386.485517 
L 241.778531 386.479814 
L 245.773922 386.368704 
L 245.963029 386.362786 
L 249.998317 386.251675 
L 250.186363 386.246578 
L 254.146936 386.135467 
L 254.334424 386.130802 
L 258.239531 386.019691 
L 258.427465 386.01468 
L 262.467497 385.90357 
L 262.656101 385.89804 
L 266.612488 385.78693 
L 266.800032 385.782221 
L 270.745148 385.67111 
L 270.933305 385.665926 
L 274.963851 385.554816 
L 275.151562 385.549978 
L 279.082393 385.438867 
L 279.270662 385.433597 
L 283.170971 385.322486 
L 283.359017 385.317389 
L 287.32316 385.206278 
L 287.510872 385.20144 
L 291.323853 385.090373 
L 291.458498 385.086614 
L 295.420354 384.975504 
L 295.609572 384.969499 
L 299.527625 384.858389 
L 299.716675 384.852514 
L 303.526364 384.741403 
L 303.715303 384.735614 
L 305.67193 384.676214 
L 305.783642 376.105982 
L 305.815894 375.961738 
L 305.940161 368.757792 
L 305.954111 368.65247 
L 306.065264 365.112576 
L 306.100418 364.957704 
L 306.213804 362.434392 
L 306.246001 362.400307 
L 306.357154 360.565517 
L 306.430252 360.482573 
L 306.542131 359.69387 
L 306.643185 359.525606 
L 306.754339 358.827149 
L 306.869231 358.726838 
L 306.980552 358.337822 
L 306.982561 358.337088 
L 307.09377 357.996672 
L 307.115532 357.885605 
L 307.25665 357.687792 
L 307.367804 356.649307 
L 307.458535 356.479402 
L 307.569688 355.706122 
L 307.714991 355.648752 
L 307.826257 355.375685 
L 307.931216 355.241549 
L 308.04237 354.536266 
L 308.183488 354.435307 
L 308.294642 354.101026 
L 308.39006 353.997173 
L 308.501883 353.775298 
L 308.646238 353.672093 
L 308.757782 353.542882 
L 309.011504 353.431771 
L 309.508627 353.187389 
L 309.634009 353.076278 
L 310.879242 352.252714 
L 311.12599 352.141646 
L 311.308735 352.063411 
L 311.517371 351.952301 
L 312.020017 351.703642 
L 312.284621 351.600307 
L 312.39583 351.508334 
L 312.785649 351.347026 
L 313.026593 351.235915 
L 313.897855 350.701877 
L 314.058838 350.636904 
L 314.170047 350.540006 
L 314.246158 350.510587 
L 314.357312 350.267414 
L 315.022727 349.892741 
L 315.290455 349.781674 
L 315.469629 349.709011 
L 315.738306 349.597901 
L 316.306741 349.298309 
L 316.578933 349.187198 
L 317.044249 348.96744 
L 317.319287 348.85633 
L 317.77456 348.644347 
L 318.053169 348.533237 
L 318.489804 348.335683 
L 318.690851 348.224573 
L 319.08904 348.056784 
L 319.3157 347.945674 
L 319.736822 347.76013 
L 319.978046 347.649019 
L 320.690165 347.238187 
L 320.974522 347.127077 
L 321.445753 346.902739 
L 321.688372 346.793357 
L 321.799804 346.740091 
L 322.228348 346.548802 
L 322.483075 346.437691 
L 323.085548 346.111747 
L 323.295077 346.000637 
L 323.73958 345.796992 
L 323.994474 345.685882 
L 324.72272 345.262565 
L 324.978284 345.151498 
L 325.161252 345.07296 
L 325.422061 344.96185 
L 325.842849 344.776565 
L 326.098971 344.665454 
L 326.505697 344.491056 
L 326.739611 344.379946 
L 326.921407 344.303179 
L 327.177529 344.192069 
L 327.584311 344.017627 
L 327.841047 343.906517 
L 328.27054 343.714493 
L 328.51818 343.603426 
L 328.742161 343.461341 
L 328.988239 343.35023 
L 329.611693 343.008043 
L 329.859891 342.896933 
L 330.324705 342.677563 
L 330.586742 342.566453 
L 331.016234 342.374429 
L 331.274588 342.263405 
L 331.411075 342.202234 
L 331.656818 342.091123 
L 332.088097 341.897717 
L 332.310404 341.786606 
L 332.766513 341.573976 
L 333.019733 341.462866 
L 333.207947 341.376206 
L 333.628511 341.191094 
L 333.883183 341.079984 
L 334.358208 340.852709 
L 334.605179 340.741598 
L 335.100292 340.498771 
L 335.338502 340.387661 
L 335.914191 340.082453 
L 336.127793 339.971342 
L 336.594839 339.750245 
L 336.826075 339.639134 
L 337.269964 339.435965 
L 337.499636 339.324854 
L 337.9909 339.085008 
L 338.229947 338.974027 
L 338.343388 338.919379 
L 338.815289 338.694523 
L 339.056512 338.584493 
L 339.168503 338.529154 
L 339.6548 338.293152 
L 339.891224 338.182042 
L 340.427462 337.907376 
L 340.624269 337.796266 
L 340.813933 337.70736 
L 341.295152 337.47529 
L 341.529568 337.364179 
L 342.016479 337.127702 
L 342.238954 337.016592 
L 342.790146 336.730349 
L 343.026013 336.619238 
L 343.543111 336.35939 
L 343.76899 336.24828 
L 344.302214 335.975947 
L 344.534231 335.864837 
L 345.045582 335.609438 
L 345.254888 335.498328 
L 345.758204 335.24915 
L 345.990778 335.13804 
L 346.49203 334.890461 
L 346.705018 334.77935 
L 347.232496 334.511467 
L 347.453687 334.400357 
L 347.572429 334.341648 
L 347.800484 334.230538 
L 348.357424 333.939845 
L 348.570635 333.828734 
L 349.094821 333.5634 
L 349.320476 333.45229 
L 349.469015 333.388181 
L 349.804652 333.27707 
L 349.971885 333.222898 
L 350.288215 333.112003 
L 350.406009 333.072994 
L 350.718991 332.962056 
L 350.841305 332.90136 
L 351.152892 332.79025 
L 351.483284 332.674949 
L 351.806366 332.563925 
L 351.930744 332.513899 
L 352.2478 332.402789 
L 352.607933 332.264462 
L 352.907356 332.153352 
L 353.28607 332.00064 
L 353.462956 331.88953 
L 353.835086 331.741915 
L 354.085294 331.630805 
L 354.490569 331.45753 
L 354.754559 331.346419 
L 355.160169 331.172885 
L 355.408702 331.061904 
L 355.537823 331.006306 
L 355.756448 330.895195 
L 356.243526 330.658589 
L 356.472139 330.547478 
L 356.659682 330.461813 
L 356.885728 330.351091 
L 356.999951 330.300979 
L 357.235985 330.189869 
L 357.797221 329.89585 
L 358.023769 329.784739 
L 358.630427 329.455555 
L 358.793865 329.344445 
L 358.981353 329.258866 
L 359.209966 329.147928 
L 359.338138 329.080493 
L 359.544654 328.969512 
L 359.670818 328.89793 
L 360.510943 328.387997 
L 360.678956 328.276886 
L 360.900371 328.138819 
L 361.088528 328.027709 
L 361.202416 327.958243 
L 361.381032 327.847608 
L 361.499105 327.776674 
L 361.683747 327.665563 
L 366.201706 324.027648 
L 366.316877 323.915414 
L 367.385503 322.948296 
L 367.502738 322.832563 
L 367.613948 322.721582 
L 367.75741 322.58304 
L 367.872748 322.471973 
L 368.249956 322.092677 
L 368.716612 321.591125 
L 368.857618 321.439018 
L 369.319865 320.94131 
L 369.438217 320.820998 
L 369.596912 320.650877 
L 370.103744 320.07083 
L 370.204072 319.95972 
L 370.331129 319.817419 
L 370.555166 319.503614 
L 370.678205 319.359802 
L 371.002682 318.989621 
L 371.113891 318.736814 
L 371.212769 318.626093 
L 371.366665 318.13357 
L 371.70565 317.730859 
L 371.843365 317.553264 
L 371.9351 317.442154 
L 372.678635 316.495642 
L 372.75988 316.384877 
L 372.89313 316.220328 
L 372.982801 316.109304 
L 373.156952 315.87935 
L 373.438463 315.521179 
L 373.558824 315.373954 
L 373.643919 315.263232 
L 373.75976 315.1062 
L 373.990604 314.788421 
L 374.107394 314.622446 
L 374.393815 314.238096 
L 374.478073 314.126986 
L 374.724877 313.795512 
L 374.842057 313.63645 
L 374.922743 313.525339 
L 375.112854 313.257067 
L 375.224008 312.694733 
L 375.401228 312.452856 
L 375.621304 312.142032 
L 375.83552 311.84015 
L 376.033945 311.546174 
L 376.164963 311.366851 
L 376.372706 311.065574 
L 376.499093 310.892558 
L 376.707283 310.591195 
L 376.827421 310.404053 
L 376.895218 310.293288 
L 377.033713 310.088304 
L 377.112726 309.977366 
L 377.236714 309.791131 
L 377.435641 309.496766 
L 377.560242 309.323189 
L 377.645951 309.212381 
L 377.778755 309.016512 
L 377.984768 308.716747 
L 378.113164 308.534098 
L 378.188662 308.422987 
L 380.896524 304.434936 
L 380.970682 304.324906 
L 381.089257 304.136122 
L 381.254314 303.897226 
L 381.325347 303.786115 
L 381.663718 303.28115 
L 386.436515 296.095781 
L 386.514691 295.9848 
L 386.660664 295.777613 
L 386.870026 295.47517 
L 387.03112 295.25459 
L 387.107008 295.144042 
L 387.229601 294.960744 
L 387.453861 294.64668 
L 387.607534 294.426014 
L 387.816561 294.123787 
L 387.954499 293.92321 
L 388.171393 293.614805 
L 388.317366 293.407661 
L 388.629846 292.962787 
L 388.707352 292.851677 
L 388.929938 292.538995 
L 389.05454 292.354358 
L 390.696901 290.016115 
L 390.929978 289.695442 
L 391.058262 289.513958 
L 391.136382 289.402934 
L 391.31338 289.161835 
L 391.391723 289.050768 
L 391.572347 288.795758 
L 391.809442 288.472104 
L 391.942357 288.292522 
L 392.163437 287.980963 
L 392.379997 287.671781 
L 392.456666 287.560843 
L 392.593543 287.368258 
L 392.841128 287.036136 
L 393.135752 286.632778 
L 393.357166 286.320917 
L 393.482828 286.144661 
L 393.785375 285.722899 
L 394.017392 285.402874 
L 394.227702 285.113045 
L 394.468646 284.786021 
L 395.471093 283.438613 
L 395.553454 283.327502 
L 395.824698 282.977021 
L 395.967267 282.791002 
L 396.201348 282.469464 
L 396.343024 282.288888 
L 396.602941 281.947219 
L 396.776311 281.720333 
L 397.698964 280.496477 
L 397.94281 280.167422 
L 398.077121 279.994709 
L 398.884156 278.949874 
L 399.168792 278.589197 
L 399.296574 278.426722 
L 400.014887 277.519262 
L 400.291934 277.164461 
L 400.426859 276.987038 
L 400.513349 276.876101 
L 400.681976 276.667574 
L 400.988095 276.290179 
L 401.184288 276.044069 
L 401.473555 275.679634 
L 401.62907 275.485061 
L 401.928325 275.112893 
L 402.597869 274.280947 
L 402.889927 273.914395 
L 403.156985 273.575059 
L 403.476496 273.187253 
L 403.623418 273.003307 
L 404.278175 272.194258 
L 404.587474 271.814357 
L 404.779482 271.581206 
L 405.128009 271.170979 
L 405.312539 270.96107 
L 405.669046 270.544579 
L 405.922601 270.236606 
L 406.307063 269.798472 
L 406.85859 269.149262 
L 406.949265 269.038152 
L 407.311463 268.617254 
L 407.869016 267.958714 
L 408.213581 267.55164 
L 408.346274 267.391498 
L 408.585377 267.117091 
L 409.199735 266.370595 
L 409.574097 265.940366 
L 409.763259 265.716072 
L 410.138905 265.28485 
L 410.272322 265.137322 
L 410.513044 264.859114 
L 410.894716 264.423355 
L 411.037898 264.25967 
L 411.540154 263.686752 
L 411.950228 263.228875 
L 412.112941 263.043245 
L 412.513027 262.593058 
L 412.691755 262.401034 
L 412.792641 262.289923 
L 413.267778 261.758995 
L 413.67283 261.30492 
L 414.166772 260.744875 
L 414.268105 260.633765 
L 414.706023 260.154245 
L 414.887652 259.953192 
L 414.987199 259.842125 
L 415.235788 259.545643 
L 415.669298 259.069536 
L 416.103311 258.602285 
L 416.53989 258.123802 
L 416.689267 257.957698 
L 417.137173 257.470445 
L 417.314003 257.284339 
L 417.745672 256.820717 
L 418.198322 256.329965 
L 418.33492 256.180795 
L 418.811285 255.671554 
L 419.039897 255.421512 
L 419.527422 254.903587 
L 419.974045 254.41681 
L 420.464974 253.89625 
L 420.884032 253.452154 
L 421.367594 252.937296 
L 421.789554 252.488707 
L 422.274791 251.972554 
L 422.677834 251.553254 
L 423.195547 251.011958 
L 423.611759 250.572269 
L 424.111113 250.045834 
L 424.223159 249.921979 
L 424.755994 249.368976 
L 425.153848 248.957712 
L 425.659005 248.426136 
L 426.093241 247.958539 
L 426.458061 247.53708 
L 426.573121 247.41949 
L 427.135138 246.843893 
L 427.348908 246.628325 
L 427.917677 246.047501 
L 428.133735 245.826576 
L 428.700886 245.247005 
L 428.846022 245.100643 
L 429.421432 244.514765 
L 429.595807 244.336306 
L 429.982501 243.942322 
L 430.580286 243.33912 
L 430.752038 243.168739 
L 430.820282 243.057715 
L 430.993262 242.88349 
L 431.562701 242.302234 
L 431.717602 242.146714 
L 432.238327 241.603301 
L 432.377325 241.462253 
L 432.967354 240.865315 
L 433.097145 240.72768 
L 433.704472 240.117005 
L 434.085642 239.731574 
L 434.730076 239.09243 
L 434.858528 238.965034 
L 435.482818 238.341312 
L 435.655073 238.169333 
L 436.311839 237.520382 
L 436.672363 237.16692 
L 437.281141 236.555165 
L 437.437883 236.392474 
L 437.550599 236.281363 
L 438.22098 235.621915 
L 438.430118 235.417104 
L 439.07963 234.773813 
L 439.285365 234.576864 
L 439.936886 233.932018 
L 440.107745 233.764402 
L 440.225707 233.653334 
L 440.583106 233.30471 
L 441.290147 232.61688 
L 441.412852 232.496222 
L 442.084237 231.835954 
L 442.432708 231.501154 
L 443.127195 230.82395 
L 443.244208 230.707397 
L 443.917658 230.04553 
L 444.050797 229.917744 
L 444.166972 229.806634 
L 444.319585 229.660056 
L 445.097381 228.917664 
L 445.226837 228.797438 
L 445.89136 228.142483 
L 446.265554 227.767853 
L 447.053227 227.017555 
L 447.397513 226.689235 
L 448.155389 225.96205 
L 448.358389 225.771494 
L 449.071346 225.079042 
L 449.416525 224.749339 
L 449.533035 224.638272 
L 449.875033 224.313494 
L 450.372937 223.787534 
L 450.728829 223.4412 
L 450.845897 223.33009 
L 451.662028 222.55776 
L 451.997833 222.242573 
L 452.759949 221.512104 
L 452.968139 221.309453 
L 453.763847 220.552934 
L 454.111983 220.218653 
L 454.946751 219.431894 
L 455.156224 219.226306 
L 455.924813 218.490912 
L 456.076478 218.34792 
L 456.758242 217.679918 
L 456.871907 217.570104 
L 457.229641 217.220962 
L 458.000406 216.483883 
L 458.137395 216.353722 
L 458.251171 216.242611 
L 458.947388 215.564285 
L 459.063229 215.451792 
L 459.176391 215.340682 
L 459.926734 214.619285 
L 460.291666 214.258954 
L 460.406948 214.148016 
L 460.550912 214.007141 
L 461.323631 213.268464 
L 461.4763 213.121714 
L 461.594205 213.010603 
L 461.943401 212.67468 
L 462.062702 212.56357 
L 462.425569 212.169456 
L 462.536723 211.848523 
L 462.647709 211.737413 
L 463.382037 211.029365 
L 463.498268 210.912379 
L 463.696135 210.720139 
L 463.807289 210.434328 
L 463.920172 210.323218 
L 464.522868 209.716171 
L 464.753322 209.461853 
L 465.365894 208.847246 
L 465.522413 208.685549 
L 466.034099 208.153325 
L 466.145978 208.020528 
L 466.680152 207.466531 
L 466.810445 207.309542 
L 467.246075 206.843328 
L 467.357452 206.693813 
L 467.795315 206.214898 
L 467.906971 206.084563 
L 468.359732 205.593638 
L 468.518594 205.422869 
L 468.622438 205.311758 
L 469.111135 204.79297 
L 469.346053 204.528197 
L 469.420825 204.417086 
L 469.910804 203.897347 
L 470.088248 203.709254 
L 470.191925 203.59823 
L 470.341636 203.430744 
L 470.681458 203.06052 
L 470.792723 202.857005 
L 471.341795 202.211554 
L 471.439334 202.100573 
L 471.625706 201.884918 
L 472.174666 201.239683 
L 472.2712 201.128616 
L 472.868372 200.408731 
L 473.077733 200.161066 
L 473.188999 199.966882 
L 473.283022 199.855814 
L 473.833489 199.208246 
L 474.061822 198.891288 
L 474.194291 198.732744 
L 474.446452 198.397037 
L 474.590918 198.226267 
L 474.841906 197.891467 
L 475.010478 197.636371 
L 475.775942 196.655904 
L 475.841786 196.545096 
L 475.968787 196.377955 
L 476.245611 196.023888 
L 476.35961 195.877829 
L 476.650886 195.511882 
L 476.806847 195.278774 
L 477.105824 194.906866 
L 477.28098 194.672938 
L 477.552056 194.322758 
L 477.71131 194.110819 
L 477.938248 193.794768 
L 478.073061 193.599158 
L 478.301339 193.282286 
L 478.438997 193.083739 
L 478.681616 192.755506 
L 478.888076 192.4776 
L 479.112671 192.163363 
L 479.276109 191.931984 
L 479.495403 191.621808 
L 479.648574 191.403778 
L 479.730656 191.292667 
L 479.963453 190.971994 
L 480.186598 190.642378 
L 480.262039 190.531354 
L 480.394676 190.25185 
L 480.561685 189.982109 
L 480.838732 189.485654 
L 481.051721 189.180274 
L 481.250034 188.856749 
L 481.467933 188.547566 
L 485.666437 181.842062 
L 485.814418 181.592885 
L 486.864239 179.762976 
L 486.99749 179.528054 
L 487.155236 179.265528 
L 487.315159 178.93332 
L 487.435855 178.699392 
L 488.04971 177.554592 
L 488.435679 176.84257 
L 488.546888 176.502197 
L 488.76914 176.086094 
L 489.731132 174.13272 
L 490.323728 173.010902 
L 490.446878 172.742371 
L 490.706125 172.182974 
L 490.786924 171.979934 
L 491.145662 171.233611 
L 491.257373 170.978515 
L 491.376004 170.748432 
L 491.487158 169.701523 
L 491.674199 169.239931 
L 491.731618 169.129037 
L 491.896618 168.718766 
L 492.003587 168.495595 
L 492.24269 168.014261 
L 492.647351 167.199811 
L 492.759063 166.953485 
L 492.805712 166.842677 
L 492.97088 166.473835 
L 493.073552 166.25399 
L 493.220696 165.924893 
L 493.319741 165.707899 
L 493.448751 165.433622 
L 493.503993 165.322382 
L 493.615202 164.886062 
L 494.047094 163.910045 
L 494.152835 163.689595 
L 494.265384 163.42789 
L 496.401575 158.192266 
L 496.514347 157.868309 
L 496.585157 157.673218 
L 496.71718 157.369176 
L 496.934968 156.827923 
L 497.075695 156.096115 
L 497.158112 155.891909 
L 497.409826 154.919909 
L 497.482645 154.723954 
L 497.61065 154.386346 
L 497.678782 154.193803 
L 497.810972 153.77148 
L 497.875532 153.581054 
L 498.092036 153.012629 
L 498.203246 152.30821 
L 498.24956 152.132213 
L 498.391459 151.707038 
L 498.395923 151.697621 
L 498.507133 151.174382 
L 498.575264 150.981322 
L 498.895668 150.020942 
L 498.97987 149.688086 
L 499.09811 149.345683 
L 499.247487 148.909752 
L 499.432855 148.225766 
L 499.475653 148.115002 
L 499.653041 147.298133 
L 499.761293 146.962685 
L 499.872503 146.143526 
L 499.93578 145.954613 
L 500.084096 145.410984 
L 500.110378 145.30009 
L 501.224927 139.620888 
L 501.336639 138.59532 
L 501.392048 138.418762 
L 501.506438 137.832235 
L 501.527866 137.67529 
L 501.649454 136.766491 
L 501.769647 135.440294 
L 501.791744 135.282744 
L 502.039273 122.816304 
L 502.064215 65.916158 
L 502.064215 65.916158 
" style="fill:none;stroke:#0000ff;stroke-linecap:square;"/>
   </g>
   <g id="patch_3">
    <path d="M 72 388.8 
L 72 43.2 
" style="fill:none;stroke:#000000;stroke-linecap:square;stroke-linejoin:miter;"/>
   </g>
   <g id="patch_4">
    <path d="M 518.4 388.8 
L 518.4 43.2 
" style="fill:none;stroke:#000000;stroke-linecap:square;stroke-linejoin:miter;"/>
   </g>
   <g id="patch_5">
    <path d="M 72 43.2 
L 518.4 43.2 
" style="fill:none;stroke:#000000;stroke-linecap:square;stroke-linejoin:miter;"/>
   </g>
   <g id="patch_6">
    <path d="M 72 388.8 
L 518.4 388.8 
" style="fill:none;stroke:#000000;stroke-linecap:square;stroke-linejoin:miter;"/>
   </g>
   <g id="matplotlib.axis_1">
    <g id="xtick_1">
     <g id="line2d_2">
      <defs>
       <path d="M 0 0 
L 0 -4 
" id="m1bfddb4a77" style="stroke:#000000;stroke-width:0.5;"/>
      </defs>
      <g>
       <use style="stroke:#000000;stroke-width:0.5;" x="72.0" xlink:href="#m1bfddb4a77" y="388.8"/>
      </g>
     </g>
     <g id="line2d_3">
      <defs>
       <path d="M 0 0 
L 0 4 
" id="mf2f2fa81cf" style="stroke:#000000;stroke-width:0.5;"/>
      </defs>
      <g>
       <use style="stroke:#000000;stroke-width:0.5;" x="72.0" xlink:href="#mf2f2fa81cf" y="43.2"/>
      </g>
     </g>
     <g id="text_1">
      <!-- 0 -->
      <defs>
       <path d="M 31.78125 66.40625 
Q 24.171875 66.40625 20.328125 58.90625 
Q 16.5 51.421875 16.5 36.375 
Q 16.5 21.390625 20.328125 13.890625 
Q 24.171875 6.390625 31.78125 6.390625 
Q 39.453125 6.390625 43.28125 13.890625 
Q 47.125 21.390625 47.125 36.375 
Q 47.125 51.421875 43.28125 58.90625 
Q 39.453125 66.40625 31.78125 66.40625 
M 31.78125 74.21875 
Q 44.046875 74.21875 50.515625 64.515625 
Q 56.984375 54.828125 56.984375 36.375 
Q 56.984375 17.96875 50.515625 8.265625 
Q 44.046875 -1.421875 31.78125 -1.421875 
Q 19.53125 -1.421875 13.0625 8.265625 
Q 6.59375 17.96875 6.59375 36.375 
Q 6.59375 54.828125 13.0625 64.515625 
Q 19.53125 74.21875 31.78125 74.21875 
" id="BitstreamVeraSans-Roman-30"/>
      </defs>
      <g transform="translate(68.1825 401.918125)scale(0.12 -0.12)">
       <use xlink:href="#BitstreamVeraSans-Roman-30"/>
      </g>
     </g>
    </g>
    <g id="xtick_2">
     <g id="line2d_4">
      <g>
       <use style="stroke:#000000;stroke-width:0.5;" x="127.8" xlink:href="#m1bfddb4a77" y="388.8"/>
      </g>
     </g>
     <g id="line2d_5">
      <g>
       <use style="stroke:#000000;stroke-width:0.5;" x="127.8" xlink:href="#mf2f2fa81cf" y="43.2"/>
      </g>
     </g>
     <g id="text_2">
      <!-- 1000000 -->
      <defs>
       <path d="M 12.40625 8.296875 
L 28.515625 8.296875 
L 28.515625 63.921875 
L 10.984375 60.40625 
L 10.984375 69.390625 
L 28.421875 72.90625 
L 38.28125 72.90625 
L 38.28125 8.296875 
L 54.390625 8.296875 
L 54.390625 0 
L 12.40625 0 
z
" id="BitstreamVeraSans-Roman-31"/>
      </defs>
      <g transform="translate(101.0775 401.918125)scale(0.12 -0.12)">
       <use xlink:href="#BitstreamVeraSans-Roman-31"/>
       <use x="63.623046875" xlink:href="#BitstreamVeraSans-Roman-30"/>
       <use x="127.24609375" xlink:href="#BitstreamVeraSans-Roman-30"/>
       <use x="190.869140625" xlink:href="#BitstreamVeraSans-Roman-30"/>
       <use x="254.4921875" xlink:href="#BitstreamVeraSans-Roman-30"/>
       <use x="318.115234375" xlink:href="#BitstreamVeraSans-Roman-30"/>
       <use x="381.73828125" xlink:href="#BitstreamVeraSans-Roman-30"/>
      </g>
     </g>
    </g>
    <g id="xtick_3">
     <g id="line2d_6">
      <g>
       <use style="stroke:#000000;stroke-width:0.5;" x="183.6" xlink:href="#m1bfddb4a77" y="388.8"/>
      </g>
     </g>
     <g id="line2d_7">
      <g>
       <use style="stroke:#000000;stroke-width:0.5;" x="183.6" xlink:href="#mf2f2fa81cf" y="43.2"/>
      </g>
     </g>
     <g id="text_3">
      <!-- 2000000 -->
      <defs>
       <path d="M 19.1875 8.296875 
L 53.609375 8.296875 
L 53.609375 0 
L 7.328125 0 
L 7.328125 8.296875 
Q 12.9375 14.109375 22.625 23.890625 
Q 32.328125 33.6875 34.8125 36.53125 
Q 39.546875 41.84375 41.421875 45.53125 
Q 43.3125 49.21875 43.3125 52.78125 
Q 43.3125 58.59375 39.234375 62.25 
Q 35.15625 65.921875 28.609375 65.921875 
Q 23.96875 65.921875 18.8125 64.3125 
Q 13.671875 62.703125 7.8125 59.421875 
L 7.8125 69.390625 
Q 13.765625 71.78125 18.9375 73 
Q 24.125 74.21875 28.421875 74.21875 
Q 39.75 74.21875 46.484375 68.546875 
Q 53.21875 62.890625 53.21875 53.421875 
Q 53.21875 48.921875 51.53125 44.890625 
Q 49.859375 40.875 45.40625 35.40625 
Q 44.1875 33.984375 37.640625 27.21875 
Q 31.109375 20.453125 19.1875 8.296875 
" id="BitstreamVeraSans-Roman-32"/>
      </defs>
      <g transform="translate(156.8775 401.918125)scale(0.12 -0.12)">
       <use xlink:href="#BitstreamVeraSans-Roman-32"/>
       <use x="63.623046875" xlink:href="#BitstreamVeraSans-Roman-30"/>
       <use x="127.24609375" xlink:href="#BitstreamVeraSans-Roman-30"/>
       <use x="190.869140625" xlink:href="#BitstreamVeraSans-Roman-30"/>
       <use x="254.4921875" xlink:href="#BitstreamVeraSans-Roman-30"/>
       <use x="318.115234375" xlink:href="#BitstreamVeraSans-Roman-30"/>
       <use x="381.73828125" xlink:href="#BitstreamVeraSans-Roman-30"/>
      </g>
     </g>
    </g>
    <g id="xtick_4">
     <g id="line2d_8">
      <g>
       <use style="stroke:#000000;stroke-width:0.5;" x="239.4" xlink:href="#m1bfddb4a77" y="388.8"/>
      </g>
     </g>
     <g id="line2d_9">
      <g>
       <use style="stroke:#000000;stroke-width:0.5;" x="239.4" xlink:href="#mf2f2fa81cf" y="43.2"/>
      </g>
     </g>
     <g id="text_4">
      <!-- 3000000 -->
      <defs>
       <path d="M 40.578125 39.3125 
Q 47.65625 37.796875 51.625 33 
Q 55.609375 28.21875 55.609375 21.1875 
Q 55.609375 10.40625 48.1875 4.484375 
Q 40.765625 -1.421875 27.09375 -1.421875 
Q 22.515625 -1.421875 17.65625 -0.515625 
Q 12.796875 0.390625 7.625 2.203125 
L 7.625 11.71875 
Q 11.71875 9.328125 16.59375 8.109375 
Q 21.484375 6.890625 26.8125 6.890625 
Q 36.078125 6.890625 40.9375 10.546875 
Q 45.796875 14.203125 45.796875 21.1875 
Q 45.796875 27.640625 41.28125 31.265625 
Q 36.765625 34.90625 28.71875 34.90625 
L 20.21875 34.90625 
L 20.21875 43.015625 
L 29.109375 43.015625 
Q 36.375 43.015625 40.234375 45.921875 
Q 44.09375 48.828125 44.09375 54.296875 
Q 44.09375 59.90625 40.109375 62.90625 
Q 36.140625 65.921875 28.71875 65.921875 
Q 24.65625 65.921875 20.015625 65.03125 
Q 15.375 64.15625 9.8125 62.3125 
L 9.8125 71.09375 
Q 15.4375 72.65625 20.34375 73.4375 
Q 25.25 74.21875 29.59375 74.21875 
Q 40.828125 74.21875 47.359375 69.109375 
Q 53.90625 64.015625 53.90625 55.328125 
Q 53.90625 49.265625 50.4375 45.09375 
Q 46.96875 40.921875 40.578125 39.3125 
" id="BitstreamVeraSans-Roman-33"/>
      </defs>
      <g transform="translate(212.6775 401.918125)scale(0.12 -0.12)">
       <use xlink:href="#BitstreamVeraSans-Roman-33"/>
       <use x="63.623046875" xlink:href="#BitstreamVeraSans-Roman-30"/>
       <use x="127.24609375" xlink:href="#BitstreamVeraSans-Roman-30"/>
       <use x="190.869140625" xlink:href="#BitstreamVeraSans-Roman-30"/>
       <use x="254.4921875" xlink:href="#BitstreamVeraSans-Roman-30"/>
       <use x="318.115234375" xlink:href="#BitstreamVeraSans-Roman-30"/>
       <use x="381.73828125" xlink:href="#BitstreamVeraSans-Roman-30"/>
      </g>
     </g>
    </g>
    <g id="xtick_5">
     <g id="line2d_10">
      <g>
       <use style="stroke:#000000;stroke-width:0.5;" x="295.2" xlink:href="#m1bfddb4a77" y="388.8"/>
      </g>
     </g>
     <g id="line2d_11">
      <g>
       <use style="stroke:#000000;stroke-width:0.5;" x="295.2" xlink:href="#mf2f2fa81cf" y="43.2"/>
      </g>
     </g>
     <g id="text_5">
      <!-- 4000000 -->
      <defs>
       <path d="M 37.796875 64.3125 
L 12.890625 25.390625 
L 37.796875 25.390625 
z
M 35.203125 72.90625 
L 47.609375 72.90625 
L 47.609375 25.390625 
L 58.015625 25.390625 
L 58.015625 17.1875 
L 47.609375 17.1875 
L 47.609375 0 
L 37.796875 0 
L 37.796875 17.1875 
L 4.890625 17.1875 
L 4.890625 26.703125 
z
" id="BitstreamVeraSans-Roman-34"/>
      </defs>
      <g transform="translate(268.4775 401.918125)scale(0.12 -0.12)">
       <use xlink:href="#BitstreamVeraSans-Roman-34"/>
       <use x="63.623046875" xlink:href="#BitstreamVeraSans-Roman-30"/>
       <use x="127.24609375" xlink:href="#BitstreamVeraSans-Roman-30"/>
       <use x="190.869140625" xlink:href="#BitstreamVeraSans-Roman-30"/>
       <use x="254.4921875" xlink:href="#BitstreamVeraSans-Roman-30"/>
       <use x="318.115234375" xlink:href="#BitstreamVeraSans-Roman-30"/>
       <use x="381.73828125" xlink:href="#BitstreamVeraSans-Roman-30"/>
      </g>
     </g>
    </g>
    <g id="xtick_6">
     <g id="line2d_12">
      <g>
       <use style="stroke:#000000;stroke-width:0.5;" x="351.0" xlink:href="#m1bfddb4a77" y="388.8"/>
      </g>
     </g>
     <g id="line2d_13">
      <g>
       <use style="stroke:#000000;stroke-width:0.5;" x="351.0" xlink:href="#mf2f2fa81cf" y="43.2"/>
      </g>
     </g>
     <g id="text_6">
      <!-- 5000000 -->
      <defs>
       <path d="M 10.796875 72.90625 
L 49.515625 72.90625 
L 49.515625 64.59375 
L 19.828125 64.59375 
L 19.828125 46.734375 
Q 21.96875 47.46875 24.109375 47.828125 
Q 26.265625 48.1875 28.421875 48.1875 
Q 40.625 48.1875 47.75 41.5 
Q 54.890625 34.8125 54.890625 23.390625 
Q 54.890625 11.625 47.5625 5.09375 
Q 40.234375 -1.421875 26.90625 -1.421875 
Q 22.3125 -1.421875 17.546875 -0.640625 
Q 12.796875 0.140625 7.71875 1.703125 
L 7.71875 11.625 
Q 12.109375 9.234375 16.796875 8.0625 
Q 21.484375 6.890625 26.703125 6.890625 
Q 35.15625 6.890625 40.078125 11.328125 
Q 45.015625 15.765625 45.015625 23.390625 
Q 45.015625 31 40.078125 35.4375 
Q 35.15625 39.890625 26.703125 39.890625 
Q 22.75 39.890625 18.8125 39.015625 
Q 14.890625 38.140625 10.796875 36.28125 
z
" id="BitstreamVeraSans-Roman-35"/>
      </defs>
      <g transform="translate(324.2775 401.918125)scale(0.12 -0.12)">
       <use xlink:href="#BitstreamVeraSans-Roman-35"/>
       <use x="63.623046875" xlink:href="#BitstreamVeraSans-Roman-30"/>
       <use x="127.24609375" xlink:href="#BitstreamVeraSans-Roman-30"/>
       <use x="190.869140625" xlink:href="#BitstreamVeraSans-Roman-30"/>
       <use x="254.4921875" xlink:href="#BitstreamVeraSans-Roman-30"/>
       <use x="318.115234375" xlink:href="#BitstreamVeraSans-Roman-30"/>
       <use x="381.73828125" xlink:href="#BitstreamVeraSans-Roman-30"/>
      </g>
     </g>
    </g>
    <g id="xtick_7">
     <g id="line2d_14">
      <g>
       <use style="stroke:#000000;stroke-width:0.5;" x="406.8" xlink:href="#m1bfddb4a77" y="388.8"/>
      </g>
     </g>
     <g id="line2d_15">
      <g>
       <use style="stroke:#000000;stroke-width:0.5;" x="406.8" xlink:href="#mf2f2fa81cf" y="43.2"/>
      </g>
     </g>
     <g id="text_7">
      <!-- 6000000 -->
      <defs>
       <path d="M 33.015625 40.375 
Q 26.375 40.375 22.484375 35.828125 
Q 18.609375 31.296875 18.609375 23.390625 
Q 18.609375 15.53125 22.484375 10.953125 
Q 26.375 6.390625 33.015625 6.390625 
Q 39.65625 6.390625 43.53125 10.953125 
Q 47.40625 15.53125 47.40625 23.390625 
Q 47.40625 31.296875 43.53125 35.828125 
Q 39.65625 40.375 33.015625 40.375 
M 52.59375 71.296875 
L 52.59375 62.3125 
Q 48.875 64.0625 45.09375 64.984375 
Q 41.3125 65.921875 37.59375 65.921875 
Q 27.828125 65.921875 22.671875 59.328125 
Q 17.53125 52.734375 16.796875 39.40625 
Q 19.671875 43.65625 24.015625 45.921875 
Q 28.375 48.1875 33.59375 48.1875 
Q 44.578125 48.1875 50.953125 41.515625 
Q 57.328125 34.859375 57.328125 23.390625 
Q 57.328125 12.15625 50.6875 5.359375 
Q 44.046875 -1.421875 33.015625 -1.421875 
Q 20.359375 -1.421875 13.671875 8.265625 
Q 6.984375 17.96875 6.984375 36.375 
Q 6.984375 53.65625 15.1875 63.9375 
Q 23.390625 74.21875 37.203125 74.21875 
Q 40.921875 74.21875 44.703125 73.484375 
Q 48.484375 72.75 52.59375 71.296875 
" id="BitstreamVeraSans-Roman-36"/>
      </defs>
      <g transform="translate(380.0775 401.918125)scale(0.12 -0.12)">
       <use xlink:href="#BitstreamVeraSans-Roman-36"/>
       <use x="63.623046875" xlink:href="#BitstreamVeraSans-Roman-30"/>
       <use x="127.24609375" xlink:href="#BitstreamVeraSans-Roman-30"/>
       <use x="190.869140625" xlink:href="#BitstreamVeraSans-Roman-30"/>
       <use x="254.4921875" xlink:href="#BitstreamVeraSans-Roman-30"/>
       <use x="318.115234375" xlink:href="#BitstreamVeraSans-Roman-30"/>
       <use x="381.73828125" xlink:href="#BitstreamVeraSans-Roman-30"/>
      </g>
     </g>
    </g>
    <g id="xtick_8">
     <g id="line2d_16">
      <g>
       <use style="stroke:#000000;stroke-width:0.5;" x="462.6" xlink:href="#m1bfddb4a77" y="388.8"/>
      </g>
     </g>
     <g id="line2d_17">
      <g>
       <use style="stroke:#000000;stroke-width:0.5;" x="462.6" xlink:href="#mf2f2fa81cf" y="43.2"/>
      </g>
     </g>
     <g id="text_8">
      <!-- 7000000 -->
      <defs>
       <path d="M 8.203125 72.90625 
L 55.078125 72.90625 
L 55.078125 68.703125 
L 28.609375 0 
L 18.3125 0 
L 43.21875 64.59375 
L 8.203125 64.59375 
z
" id="BitstreamVeraSans-Roman-37"/>
      </defs>
      <g transform="translate(435.8775 401.918125)scale(0.12 -0.12)">
       <use xlink:href="#BitstreamVeraSans-Roman-37"/>
       <use x="63.623046875" xlink:href="#BitstreamVeraSans-Roman-30"/>
       <use x="127.24609375" xlink:href="#BitstreamVeraSans-Roman-30"/>
       <use x="190.869140625" xlink:href="#BitstreamVeraSans-Roman-30"/>
       <use x="254.4921875" xlink:href="#BitstreamVeraSans-Roman-30"/>
       <use x="318.115234375" xlink:href="#BitstreamVeraSans-Roman-30"/>
       <use x="381.73828125" xlink:href="#BitstreamVeraSans-Roman-30"/>
      </g>
     </g>
    </g>
    <g id="xtick_9">
     <g id="line2d_18">
      <g>
       <use style="stroke:#000000;stroke-width:0.5;" x="518.4" xlink:href="#m1bfddb4a77" y="388.8"/>
      </g>
     </g>
     <g id="line2d_19">
      <g>
       <use style="stroke:#000000;stroke-width:0.5;" x="518.4" xlink:href="#mf2f2fa81cf" y="43.2"/>
      </g>
     </g>
     <g id="text_9">
      <!-- 8000000 -->
      <defs>
       <path d="M 31.78125 34.625 
Q 24.75 34.625 20.71875 30.859375 
Q 16.703125 27.09375 16.703125 20.515625 
Q 16.703125 13.921875 20.71875 10.15625 
Q 24.75 6.390625 31.78125 6.390625 
Q 38.8125 6.390625 42.859375 10.171875 
Q 46.921875 13.96875 46.921875 20.515625 
Q 46.921875 27.09375 42.890625 30.859375 
Q 38.875 34.625 31.78125 34.625 
M 21.921875 38.8125 
Q 15.578125 40.375 12.03125 44.71875 
Q 8.5 49.078125 8.5 55.328125 
Q 8.5 64.0625 14.71875 69.140625 
Q 20.953125 74.21875 31.78125 74.21875 
Q 42.671875 74.21875 48.875 69.140625 
Q 55.078125 64.0625 55.078125 55.328125 
Q 55.078125 49.078125 51.53125 44.71875 
Q 48 40.375 41.703125 38.8125 
Q 48.828125 37.15625 52.796875 32.3125 
Q 56.78125 27.484375 56.78125 20.515625 
Q 56.78125 9.90625 50.3125 4.234375 
Q 43.84375 -1.421875 31.78125 -1.421875 
Q 19.734375 -1.421875 13.25 4.234375 
Q 6.78125 9.90625 6.78125 20.515625 
Q 6.78125 27.484375 10.78125 32.3125 
Q 14.796875 37.15625 21.921875 38.8125 
M 18.3125 54.390625 
Q 18.3125 48.734375 21.84375 45.5625 
Q 25.390625 42.390625 31.78125 42.390625 
Q 38.140625 42.390625 41.71875 45.5625 
Q 45.3125 48.734375 45.3125 54.390625 
Q 45.3125 60.0625 41.71875 63.234375 
Q 38.140625 66.40625 31.78125 66.40625 
Q 25.390625 66.40625 21.84375 63.234375 
Q 18.3125 60.0625 18.3125 54.390625 
" id="BitstreamVeraSans-Roman-38"/>
      </defs>
      <g transform="translate(491.6775 401.918125)scale(0.12 -0.12)">
       <use xlink:href="#BitstreamVeraSans-Roman-38"/>
       <use x="63.623046875" xlink:href="#BitstreamVeraSans-Roman-30"/>
       <use x="127.24609375" xlink:href="#BitstreamVeraSans-Roman-30"/>
       <use x="190.869140625" xlink:href="#BitstreamVeraSans-Roman-30"/>
       <use x="254.4921875" xlink:href="#BitstreamVeraSans-Roman-30"/>
       <use x="318.115234375" xlink:href="#BitstreamVeraSans-Roman-30"/>
       <use x="381.73828125" xlink:href="#BitstreamVeraSans-Roman-30"/>
      </g>
     </g>
    </g>
   </g>
   <g id="matplotlib.axis_2">
    <g id="ytick_1">
     <g id="line2d_20">
      <defs>
       <path d="M 0 0 
L 4 0 
" id="mf09802ef4f" style="stroke:#000000;stroke-width:0.5;"/>
      </defs>
      <g>
       <use style="stroke:#000000;stroke-width:0.5;" x="72.0" xlink:href="#mf09802ef4f" y="388.8"/>
      </g>
     </g>
     <g id="line2d_21">
      <defs>
       <path d="M 0 0 
L -4 0 
" id="m40eb1794f5" style="stroke:#000000;stroke-width:0.5;"/>
      </defs>
      <g>
       <use style="stroke:#000000;stroke-width:0.5;" x="518.4" xlink:href="#m40eb1794f5" y="388.8"/>
      </g>
     </g>
     <g id="text_10">
      <!-- 0 -->
      <g transform="translate(60.365 392.11125)scale(0.12 -0.12)">
       <use xlink:href="#BitstreamVeraSans-Roman-30"/>
      </g>
     </g>
    </g>
    <g id="ytick_2">
     <g id="line2d_22">
      <g>
       <use style="stroke:#000000;stroke-width:0.5;" x="72.0" xlink:href="#mf09802ef4f" y="345.6"/>
      </g>
     </g>
     <g id="line2d_23">
      <g>
       <use style="stroke:#000000;stroke-width:0.5;" x="518.4" xlink:href="#m40eb1794f5" y="345.6"/>
      </g>
     </g>
     <g id="text_11">
      <!-- 1000000 -->
      <g transform="translate(14.555 348.91125)scale(0.12 -0.12)">
       <use xlink:href="#BitstreamVeraSans-Roman-31"/>
       <use x="63.623046875" xlink:href="#BitstreamVeraSans-Roman-30"/>
       <use x="127.24609375" xlink:href="#BitstreamVeraSans-Roman-30"/>
       <use x="190.869140625" xlink:href="#BitstreamVeraSans-Roman-30"/>
       <use x="254.4921875" xlink:href="#BitstreamVeraSans-Roman-30"/>
       <use x="318.115234375" xlink:href="#BitstreamVeraSans-Roman-30"/>
       <use x="381.73828125" xlink:href="#BitstreamVeraSans-Roman-30"/>
      </g>
     </g>
    </g>
    <g id="ytick_3">
     <g id="line2d_24">
      <g>
       <use style="stroke:#000000;stroke-width:0.5;" x="72.0" xlink:href="#mf09802ef4f" y="302.4"/>
      </g>
     </g>
     <g id="line2d_25">
      <g>
       <use style="stroke:#000000;stroke-width:0.5;" x="518.4" xlink:href="#m40eb1794f5" y="302.4"/>
      </g>
     </g>
     <g id="text_12">
      <!-- 2000000 -->
      <g transform="translate(14.555 305.71125)scale(0.12 -0.12)">
       <use xlink:href="#BitstreamVeraSans-Roman-32"/>
       <use x="63.623046875" xlink:href="#BitstreamVeraSans-Roman-30"/>
       <use x="127.24609375" xlink:href="#BitstreamVeraSans-Roman-30"/>
       <use x="190.869140625" xlink:href="#BitstreamVeraSans-Roman-30"/>
       <use x="254.4921875" xlink:href="#BitstreamVeraSans-Roman-30"/>
       <use x="318.115234375" xlink:href="#BitstreamVeraSans-Roman-30"/>
       <use x="381.73828125" xlink:href="#BitstreamVeraSans-Roman-30"/>
      </g>
     </g>
    </g>
    <g id="ytick_4">
     <g id="line2d_26">
      <g>
       <use style="stroke:#000000;stroke-width:0.5;" x="72.0" xlink:href="#mf09802ef4f" y="259.2"/>
      </g>
     </g>
     <g id="line2d_27">
      <g>
       <use style="stroke:#000000;stroke-width:0.5;" x="518.4" xlink:href="#m40eb1794f5" y="259.2"/>
      </g>
     </g>
     <g id="text_13">
      <!-- 3000000 -->
      <g transform="translate(14.555 262.51125)scale(0.12 -0.12)">
       <use xlink:href="#BitstreamVeraSans-Roman-33"/>
       <use x="63.623046875" xlink:href="#BitstreamVeraSans-Roman-30"/>
       <use x="127.24609375" xlink:href="#BitstreamVeraSans-Roman-30"/>
       <use x="190.869140625" xlink:href="#BitstreamVeraSans-Roman-30"/>
       <use x="254.4921875" xlink:href="#BitstreamVeraSans-Roman-30"/>
       <use x="318.115234375" xlink:href="#BitstreamVeraSans-Roman-30"/>
       <use x="381.73828125" xlink:href="#BitstreamVeraSans-Roman-30"/>
      </g>
     </g>
    </g>
    <g id="ytick_5">
     <g id="line2d_28">
      <g>
       <use style="stroke:#000000;stroke-width:0.5;" x="72.0" xlink:href="#mf09802ef4f" y="216.0"/>
      </g>
     </g>
     <g id="line2d_29">
      <g>
       <use style="stroke:#000000;stroke-width:0.5;" x="518.4" xlink:href="#m40eb1794f5" y="216.0"/>
      </g>
     </g>
     <g id="text_14">
      <!-- 4000000 -->
      <g transform="translate(14.555 219.31125)scale(0.12 -0.12)">
       <use xlink:href="#BitstreamVeraSans-Roman-34"/>
       <use x="63.623046875" xlink:href="#BitstreamVeraSans-Roman-30"/>
       <use x="127.24609375" xlink:href="#BitstreamVeraSans-Roman-30"/>
       <use x="190.869140625" xlink:href="#BitstreamVeraSans-Roman-30"/>
       <use x="254.4921875" xlink:href="#BitstreamVeraSans-Roman-30"/>
       <use x="318.115234375" xlink:href="#BitstreamVeraSans-Roman-30"/>
       <use x="381.73828125" xlink:href="#BitstreamVeraSans-Roman-30"/>
      </g>
     </g>
    </g>
    <g id="ytick_6">
     <g id="line2d_30">
      <g>
       <use style="stroke:#000000;stroke-width:0.5;" x="72.0" xlink:href="#mf09802ef4f" y="172.8"/>
      </g>
     </g>
     <g id="line2d_31">
      <g>
       <use style="stroke:#000000;stroke-width:0.5;" x="518.4" xlink:href="#m40eb1794f5" y="172.8"/>
      </g>
     </g>
     <g id="text_15">
      <!-- 5000000 -->
      <g transform="translate(14.555 176.11125)scale(0.12 -0.12)">
       <use xlink:href="#BitstreamVeraSans-Roman-35"/>
       <use x="63.623046875" xlink:href="#BitstreamVeraSans-Roman-30"/>
       <use x="127.24609375" xlink:href="#BitstreamVeraSans-Roman-30"/>
       <use x="190.869140625" xlink:href="#BitstreamVeraSans-Roman-30"/>
       <use x="254.4921875" xlink:href="#BitstreamVeraSans-Roman-30"/>
       <use x="318.115234375" xlink:href="#BitstreamVeraSans-Roman-30"/>
       <use x="381.73828125" xlink:href="#BitstreamVeraSans-Roman-30"/>
      </g>
     </g>
    </g>
    <g id="ytick_7">
     <g id="line2d_32">
      <g>
       <use style="stroke:#000000;stroke-width:0.5;" x="72.0" xlink:href="#mf09802ef4f" y="129.6"/>
      </g>
     </g>
     <g id="line2d_33">
      <g>
       <use style="stroke:#000000;stroke-width:0.5;" x="518.4" xlink:href="#m40eb1794f5" y="129.6"/>
      </g>
     </g>
     <g id="text_16">
      <!-- 6000000 -->
      <g transform="translate(14.555 132.91125)scale(0.12 -0.12)">
       <use xlink:href="#BitstreamVeraSans-Roman-36"/>
       <use x="63.623046875" xlink:href="#BitstreamVeraSans-Roman-30"/>
       <use x="127.24609375" xlink:href="#BitstreamVeraSans-Roman-30"/>
       <use x="190.869140625" xlink:href="#BitstreamVeraSans-Roman-30"/>
       <use x="254.4921875" xlink:href="#BitstreamVeraSans-Roman-30"/>
       <use x="318.115234375" xlink:href="#BitstreamVeraSans-Roman-30"/>
       <use x="381.73828125" xlink:href="#BitstreamVeraSans-Roman-30"/>
      </g>
     </g>
    </g>
    <g id="ytick_8">
     <g id="line2d_34">
      <g>
       <use style="stroke:#000000;stroke-width:0.5;" x="72.0" xlink:href="#mf09802ef4f" y="86.4"/>
      </g>
     </g>
     <g id="line2d_35">
      <g>
       <use style="stroke:#000000;stroke-width:0.5;" x="518.4" xlink:href="#m40eb1794f5" y="86.4"/>
      </g>
     </g>
     <g id="text_17">
      <!-- 7000000 -->
      <g transform="translate(14.555 89.71125)scale(0.12 -0.12)">
       <use xlink:href="#BitstreamVeraSans-Roman-37"/>
       <use x="63.623046875" xlink:href="#BitstreamVeraSans-Roman-30"/>
       <use x="127.24609375" xlink:href="#BitstreamVeraSans-Roman-30"/>
       <use x="190.869140625" xlink:href="#BitstreamVeraSans-Roman-30"/>
       <use x="254.4921875" xlink:href="#BitstreamVeraSans-Roman-30"/>
       <use x="318.115234375" xlink:href="#BitstreamVeraSans-Roman-30"/>
       <use x="381.73828125" xlink:href="#BitstreamVeraSans-Roman-30"/>
      </g>
     </g>
    </g>
    <g id="ytick_9">
     <g id="line2d_36">
      <g>
       <use style="stroke:#000000;stroke-width:0.5;" x="72.0" xlink:href="#mf09802ef4f" y="43.2"/>
      </g>
     </g>
     <g id="line2d_37">
      <g>
       <use style="stroke:#000000;stroke-width:0.5;" x="518.4" xlink:href="#m40eb1794f5" y="43.2"/>
      </g>
     </g>
     <g id="text_18">
      <!-- 8000000 -->
      <g transform="translate(14.555 46.51125)scale(0.12 -0.12)">
       <use xlink:href="#BitstreamVeraSans-Roman-38"/>
       <use x="63.623046875" xlink:href="#BitstreamVeraSans-Roman-30"/>
       <use x="127.24609375" xlink:href="#BitstreamVeraSans-Roman-30"/>
       <use x="190.869140625" xlink:href="#BitstreamVeraSans-Roman-30"/>
       <use x="254.4921875" xlink:href="#BitstreamVeraSans-Roman-30"/>
       <use x="318.115234375" xlink:href="#BitstreamVeraSans-Roman-30"/>
       <use x="381.73828125" xlink:href="#BitstreamVeraSans-Roman-30"/>
      </g>
     </g>
    </g>
   </g>
  </g>
 </g>
 <defs>
  <clipPath id="p6075e72d2d">
   <rect height="345.6" width="446.4" x="72.0" y="43.2"/>
  </clipPath>
 </defs>
</svg>
